<svg width="48" height="48" viewBox="0 0 48 48" fill="none" xmlns="http://www.w3.org/2000/svg">
<path d="M24 14.088C11.427 14.088 1.108 23.716 0 36H48C46.892 23.716 36.573 14.088 24 14.088ZM33.179 27.079C33.179 25.975 34.074 25.08 35.178 25.08C36.282 25.08 37.177 25.975 37.177 27.079C37.177 28.183 36.282 29.078 35.178 29.078C34.074 29.078 33.179 28.183 33.179 27.079ZM12.822 29.078C11.718 29.078 10.823 28.183 10.823 27.079C10.823 25.975 11.718 25.08 12.822 25.08C13.926 25.08 14.821 25.975 14.821 27.079C14.821 28.183 13.926 29.078 12.822 29.078Z" fill="#30DC80"/>
<path d="M34.038 19.313C33.898 19.313 33.757 19.278 33.628 19.203C33.235 18.976 33.101 18.474 33.327 18.081L38.524 9.073C38.751 8.679 39.253 8.544 39.646 8.772C40.039 8.999 40.173 9.501 39.947 9.894L34.75 18.902C34.598 19.166 34.322 19.313 34.038 19.313Z" fill="#30DC80"/>
<path d="M13.962 19.313C13.678 19.313 13.402 19.165 13.25 18.902L8.05399 9.894C7.82699 9.501 7.96199 8.999 8.35399 8.772C8.74599 8.544 9.24899 8.679 9.47599 9.073L14.673 18.081C14.9 18.475 14.765 18.977 14.372 19.203C14.243 19.278 14.102 19.313 13.962 19.313Z" fill="#30DC80"/>
</svg>
