<svg width="48" height="48" viewBox="0 0 48 48" fill="none" xmlns="http://www.w3.org/2000/svg">
<path d="M23.933 2L3 9.285L6.308 36.408L23.955 46L41.693 36.278L45 9.156L23.933 2Z" fill="#BDBDBD"/>
<path d="M42.818 10.527L24 4.13501V43.695L39.832 35.017L42.818 10.527Z" fill="#B71C1C"/>
<path d="M23.941 4.11499L5.181 10.644L8.168 35.143L23.951 43.721L24 43.695V4.13499L23.941 4.11499Z" fill="#DD2C00"/>
<path d="M24 5.996V15.504L32.578 34H36.987L24 5.996Z" fill="#BDBDBD"/>
<path d="M11.013 34H15.422L24 15.504V5.996L11.013 34Z" fill="#EEEEEE"/>
<path d="M24 24H30V28H24V24Z" fill="#BDBDBD"/>
<path d="M18 24H24V28H18V24Z" fill="#EEEEEE"/>
</svg>
