<svg width="48" height="48" viewBox="0 0 48 48" fill="none" xmlns="http://www.w3.org/2000/svg">
<path d="M40.904 15.656C40.7072 15.7792 36.0224 18.3792 36.0224 24.144C36.2432 30.7184 41.9344 33.024 42.032 33.024C41.9344 33.1472 41.1728 36.1648 38.9168 39.328C37.1264 42.0528 35.1392 44.8 32.1216 44.8C29.2512 44.8 28.2208 42.984 24.9088 42.984C21.352 42.984 20.3456 44.8 17.6224 44.8C14.6048 44.8 12.4704 41.9056 10.5824 39.2064C8.1296 35.6736 6.0448 30.1296 5.9712 24.8064C5.9216 21.9856 6.4624 19.2128 7.8352 16.8576C9.7728 13.5696 13.232 11.3376 17.0096 11.264C19.904 11.1664 22.48 13.2512 24.2464 13.2512C25.9392 13.2512 29.104 11.264 32.6848 11.264C34.2304 11.2656 38.352 11.7312 40.904 15.656ZM24.0016 10.7008C23.4864 8.1248 24.9088 5.5488 26.2336 3.9056C27.9264 1.9184 30.6 0.569599 32.9056 0.569599C33.0528 3.1456 32.12 5.672 30.4528 7.512C28.9568 9.4992 26.3808 10.9952 24.0016 10.7008Z" fill="black"/>
</svg>
