<svg width="48" height="48" viewBox="0 0 48 48" fill="none" xmlns="http://www.w3.org/2000/svg">
<g clip-path="url(#clip0_2_1281)">
<path d="M13.527 21.529C13.527 22.126 13.591 22.609 13.703 22.964C13.831 23.319 13.99 23.706 14.214 24.125C14.294 24.254 14.326 24.383 14.326 24.496C14.326 24.657 14.23 24.818 14.023 24.98L13.017 25.657C12.873 25.754 12.73 25.802 12.602 25.802C12.442 25.802 12.283 25.721 12.123 25.576C11.899 25.334 11.708 25.076 11.548 24.818C11.388 24.544 11.229 24.238 11.053 23.867C9.80799 25.35 8.24299 26.092 6.35899 26.092C5.01799 26.092 3.94799 25.705 3.16599 24.931C2.38399 24.157 1.98499 23.125 1.98499 21.835C1.98499 20.465 2.46399 19.352 3.43799 18.514C4.41199 17.676 5.70499 17.256 7.34899 17.256C7.89198 17.256 8.45099 17.304 9.04099 17.385C9.63099 17.466 10.238 17.595 10.877 17.74V16.563C10.877 15.338 10.622 14.483 10.127 13.983C9.61599 13.483 8.75399 13.241 7.52499 13.241C6.96599 13.241 6.39199 13.305 5.80099 13.451C5.20999 13.596 4.63599 13.773 4.07699 13.999C3.82199 14.112 3.62999 14.176 3.51799 14.209C3.40599 14.241 3.32599 14.257 3.26299 14.257C3.03899 14.257 2.92799 14.096 2.92799 13.757V12.967C2.92799 12.709 2.95999 12.516 3.03999 12.403C3.11999 12.29 3.26399 12.177 3.48699 12.064C4.04599 11.774 4.71599 11.532 5.49899 11.338C6.28099 11.128 7.11098 11.032 7.98899 11.032C9.88899 11.032 11.278 11.467 12.172 12.338C13.05 13.209 13.497 14.531 13.497 16.304V21.528L13.527 21.529ZM7.04499 23.979C7.57199 23.979 8.11499 23.882 8.68899 23.689C9.26399 23.496 9.77499 23.141 10.206 22.657C10.461 22.351 10.653 22.012 10.749 21.625C10.845 21.238 10.909 20.77 10.909 20.222V19.545C10.446 19.432 9.95098 19.335 9.43998 19.271C8.92898 19.207 8.43399 19.174 7.93899 19.174C6.86899 19.174 6.08699 19.384 5.55999 19.819C5.03299 20.254 4.77799 20.867 4.77799 21.673C4.77799 22.431 4.96999 22.995 5.36899 23.382C5.75199 23.786 6.31099 23.979 7.04499 23.979ZM19.865 25.721C19.578 25.721 19.386 25.673 19.258 25.56C19.13 25.463 19.019 25.238 18.923 24.931L15.171 12.468C15.075 12.146 15.027 11.936 15.027 11.823C15.027 11.565 15.155 11.42 15.41 11.42H16.975C17.278 11.42 17.486 11.468 17.598 11.581C17.726 11.678 17.821 11.903 17.917 12.21L20.599 22.884L23.089 12.21C23.169 11.888 23.265 11.678 23.392 11.581C23.52 11.484 23.743 11.42 24.031 11.42H25.308C25.611 11.42 25.819 11.468 25.947 11.581C26.075 11.678 26.186 11.903 26.25 12.21L28.772 23.013L31.534 12.21C31.63 11.888 31.742 11.678 31.853 11.581C31.981 11.484 32.188 11.42 32.476 11.42H33.961C34.216 11.42 34.36 11.549 34.36 11.823C34.36 11.904 34.344 11.984 34.328 12.081C34.312 12.178 34.28 12.307 34.216 12.484L30.369 24.947C30.273 25.269 30.161 25.479 30.034 25.576C29.907 25.673 29.699 25.737 29.427 25.737H28.054C27.751 25.737 27.543 25.689 27.415 25.576C27.287 25.463 27.176 25.254 27.112 24.931L24.638 14.531L22.18 24.915C22.1 25.237 22.004 25.447 21.877 25.56C21.749 25.673 21.526 25.721 21.238 25.721H19.865ZM40.379 26.156C39.549 26.156 38.719 26.059 37.921 25.866C37.123 25.673 36.5 25.463 36.085 25.221C35.83 25.076 35.654 24.915 35.59 24.77C35.526 24.625 35.494 24.464 35.494 24.319V23.497C35.494 23.158 35.622 22.997 35.861 22.997C35.957 22.997 36.053 23.013 36.148 23.045C36.244 23.077 36.387 23.142 36.547 23.206C37.09 23.448 37.68 23.641 38.303 23.77C38.942 23.899 39.564 23.963 40.203 23.963C41.209 23.963 41.991 23.786 42.534 23.431C43.077 23.076 43.364 22.56 43.364 21.899C43.364 21.448 43.22 21.077 42.933 20.77C42.646 20.464 42.103 20.19 41.321 19.932L39.006 19.206C37.841 18.835 36.979 18.287 36.452 17.561C35.925 16.852 35.654 16.062 35.654 15.223C35.654 14.546 35.798 13.949 36.085 13.433C36.372 12.917 36.756 12.466 37.234 12.111C37.713 11.74 38.256 11.466 38.894 11.273C39.533 11.081 40.203 11 40.906 11C41.257 11 41.624 11.016 41.976 11.064C42.343 11.112 42.678 11.177 43.014 11.241C43.333 11.322 43.637 11.402 43.924 11.499C44.211 11.596 44.435 11.692 44.595 11.789C44.819 11.918 44.978 12.047 45.074 12.192C45.17 12.321 45.218 12.498 45.218 12.724V13.482C45.218 13.821 45.09 13.998 44.851 13.998C44.723 13.998 44.516 13.934 44.244 13.805C43.334 13.386 42.312 13.176 41.179 13.176C40.269 13.176 39.551 13.321 39.056 13.627C38.561 13.933 38.306 14.401 38.306 15.062C38.306 15.513 38.466 15.9 38.785 16.207C39.104 16.513 39.695 16.82 40.541 17.094L42.808 17.82C43.957 18.191 44.788 18.707 45.282 19.368C45.776 20.029 46.016 20.787 46.016 21.625C46.016 22.318 45.872 22.947 45.601 23.495C45.314 24.043 44.93 24.527 44.436 24.914C43.941 25.317 43.35 25.607 42.664 25.817C41.943 26.043 41.193 26.156 40.379 26.156Z" fill="#252F3E"/>
<path d="M43.396 33.992C38.144 37.91 30.513 39.99 23.951 39.99C14.756 39.99 6.46998 36.556 0.211976 30.848C-0.283024 30.397 0.163976 29.784 0.754976 30.139C7.52398 34.105 15.873 36.508 24.51 36.508C30.337 36.508 36.739 35.283 42.629 32.767C43.508 32.364 44.258 33.347 43.396 33.992ZM45.583 31.477C44.912 30.606 41.145 31.058 39.437 31.267C38.926 31.331 38.846 30.88 39.309 30.541C42.31 28.413 47.243 29.025 47.818 29.735C48.393 30.461 47.658 35.443 44.849 37.829C44.418 38.2 44.003 38.006 44.194 37.523C44.833 35.927 46.254 32.331 45.583 31.477Z" fill="#FF9900"/>
</g>
<defs>
<clipPath id="clip0_2_1281">
<rect width="48" height="48" fill="white"/>
</clipPath>
</defs>
</svg>
