<svg width="48" height="48" viewBox="0 0 48 48" fill="none" xmlns="http://www.w3.org/2000/svg">
<path d="M34.399 6.059C34.933 5.945 35.422 5.843 35.911 5.734C35.95 5.725 36.007 5.665 36.008 5.629C36.013 5.09 36.012 4.551 36.012 4C35.5 4.117 35.018 4.223 34.539 4.343C34.484 4.357 34.406 4.438 34.406 4.489C34.396 4.998 34.399 5.509 34.399 6.059ZM36.013 44C36.013 43.45 36.016 42.917 36.006 42.384C36.005 42.338 35.915 42.268 35.856 42.254C35.548 42.179 35.238 42.117 34.927 42.053C34.758 42.018 34.588 41.986 34.399 41.949C34.399 42.489 34.396 42.992 34.403 43.494C34.404 43.547 34.456 43.637 34.499 43.647C34.993 43.77 35.49 43.88 36.013 44ZM33.996 6.141C33.996 5.56 33.996 5.019 33.996 4.464C33.634 4.538 33.287 4.608 32.94 4.681C32.388 4.798 32.388 4.799 32.388 5.378C32.388 5.728 32.388 6.076 32.388 6.446C32.948 6.34 33.47 6.241 33.996 6.141ZM32.388 41.555C32.388 42.101 32.385 42.597 32.392 43.092C32.393 43.137 32.445 43.214 32.485 43.222C32.983 43.331 33.483 43.431 33.996 43.535C33.996 42.969 33.996 42.421 33.996 41.858C33.466 41.758 32.943 41.66 32.388 41.555ZM30.389 6.784C30.902 6.7 31.375 6.626 31.846 6.54C31.903 6.53 31.993 6.457 31.994 6.41C32.004 5.908 32.001 5.406 32.001 4.876C31.471 4.97 30.97 5.058 30.47 5.153C30.437 5.159 30.393 5.23 30.393 5.272C30.388 5.767 30.389 6.262 30.389 6.784ZM29.993 41.153C29.452 41.075 28.927 40.999 28.393 40.922C28.393 41.465 28.393 41.988 28.393 42.512C28.933 42.597 29.457 42.68 29.993 42.764C29.993 42.22 29.993 41.702 29.993 41.153ZM24.313 7.538C24.832 7.488 25.336 7.441 25.841 7.386C25.879 7.382 25.94 7.322 25.94 7.286C25.947 6.803 25.944 6.319 25.944 5.816C25.377 5.878 24.844 5.936 24.313 5.994C24.313 6.517 24.313 7.017 24.313 7.538ZM23.902 41.965C23.902 41.615 23.902 41.286 23.902 40.956C23.902 40.439 23.902 40.436 23.395 40.387C23.028 40.351 22.661 40.326 22.281 40.296C22.281 40.819 22.281 41.312 22.281 41.828C22.818 41.874 23.346 41.919 23.902 41.965ZM23.889 6.033C23.336 6.081 22.809 6.127 22.282 6.173C22.282 6.691 22.282 7.183 22.282 7.701C22.824 7.659 23.352 7.619 23.889 7.578C23.889 7.057 23.889 6.557 23.889 6.033ZM26.349 42.233C26.888 42.304 27.414 42.375 27.953 42.446C27.953 41.907 27.953 41.392 27.953 40.862C27.415 40.797 26.889 40.734 26.349 40.669C26.349 41.202 26.349 41.703 26.349 42.233ZM27.953 5.552C27.408 5.625 26.877 5.696 26.354 5.767C26.354 6.299 26.354 6.806 26.354 7.331C26.899 7.265 27.425 7.201 27.953 7.137C27.953 6.598 27.953 6.083 27.953 5.552ZM20.245 6.296C20.245 6.817 20.245 7.313 20.245 7.823C20.796 7.791 21.326 7.76 21.854 7.728C21.854 7.209 21.854 6.716 21.854 6.205C21.314 6.236 20.79 6.265 20.245 6.296ZM21.857 40.269C21.302 40.24 20.775 40.212 20.223 40.184C20.223 40.669 20.218 41.123 20.23 41.576C20.232 41.624 20.328 41.704 20.387 41.711C20.624 41.739 20.863 41.745 21.103 41.757C21.354 41.77 21.604 41.782 21.857 41.794C21.857 41.276 21.857 40.784 21.857 40.269ZM16.165 41.594C16.706 41.594 17.235 41.594 17.774 41.594C17.774 41.106 17.774 40.615 17.774 40.1C17.236 40.1 16.707 40.1 16.165 40.1C16.165 40.583 16.165 41.067 16.165 41.594ZM18.205 41.645C18.757 41.645 19.285 41.645 19.812 41.645C19.812 41.154 19.812 40.668 19.812 40.149C19.272 40.149 18.743 40.149 18.205 40.149C18.205 40.629 18.205 41.114 18.205 41.645ZM17.774 7.898C17.774 7.378 17.774 6.892 17.774 6.408C17.232 6.408 16.703 6.408 16.171 6.408C16.171 6.923 16.171 7.412 16.171 7.898C16.715 7.898 17.238 7.898 17.774 7.898ZM14.117 7.897C14.657 7.897 15.187 7.897 15.724 7.897C15.724 7.402 15.724 6.913 15.724 6.403C15.179 6.403 14.649 6.403 14.117 6.403C14.117 6.905 14.117 7.391 14.117 7.897ZM36.006 8.006C35.456 8.109 34.93 8.209 34.418 8.306C34.418 8.816 34.418 9.29 34.418 9.793C34.961 9.701 35.482 9.613 36.006 9.524C36.006 9.014 36.006 8.53 36.006 8.006ZM34.399 38.205C34.399 38.499 34.396 38.749 34.4 39C34.403 39.226 34.336 39.512 34.446 39.659C34.545 39.791 34.841 39.775 35.052 39.816C35.365 39.877 35.679 39.932 35.997 39.989C35.997 39.462 35.997 38.972 35.997 38.474C35.467 38.384 34.952 38.297 34.399 38.205ZM37.997 38.845C37.468 38.746 36.954 38.65 36.426 38.551C36.426 39.071 36.426 39.565 36.426 40.074C36.949 40.183 37.467 40.29 37.997 40.399C37.997 39.876 37.997 39.373 37.997 38.845ZM36.43 9.45C36.965 9.348 37.484 9.249 37.995 9.152C37.995 8.615 37.995 8.113 37.995 7.598C37.465 7.708 36.946 7.817 36.43 7.925C36.43 8.441 36.43 8.934 36.43 9.45ZM37.994 5.649C37.496 5.763 37.006 5.873 36.52 5.991C36.48 6 36.423 6.057 36.423 6.091C36.416 6.568 36.419 7.045 36.419 7.539C36.962 7.423 37.474 7.314 37.995 7.202C37.994 6.69 37.994 6.188 37.994 5.649ZM32.397 10.101C32.947 10.018 33.47 9.939 33.991 9.86C33.991 9.359 33.991 8.877 33.991 8.378C33.449 8.468 32.927 8.555 32.397 8.642C32.397 9.13 32.397 9.599 32.397 10.101ZM33.989 39.619C33.989 39.107 33.989 38.624 33.989 38.138C33.453 38.057 32.935 37.98 32.401 37.9C32.401 38.396 32.401 38.871 32.401 39.357C32.931 39.444 33.449 39.53 33.989 39.619ZM33.994 41.482C33.994 40.979 33.994 40.495 33.994 39.999C33.46 39.909 32.939 39.82 32.4 39.729C32.4 40.226 32.4 40.701 32.4 41.186C32.932 41.284 33.454 41.382 33.994 41.482ZM33.996 6.519C33.498 6.611 33.011 6.698 32.526 6.795C32.475 6.805 32.394 6.87 32.393 6.911C32.384 7.356 32.387 7.801 32.387 8.274C32.944 8.179 33.467 8.09 33.996 8C33.996 7.497 33.996 7.012 33.996 6.519ZM25.931 40.27C25.931 39.789 25.931 39.346 25.931 38.889C25.382 38.841 24.849 38.794 24.313 38.747C24.313 39.223 24.313 39.66 24.313 40.111C24.852 40.164 25.381 40.217 25.931 40.27ZM24.307 38.399C24.86 38.446 25.393 38.491 25.918 38.536C25.933 38.493 25.942 38.478 25.942 38.463C25.944 38.196 25.945 37.929 25.946 37.662C25.947 37.172 25.946 37.172 25.478 37.128C25.432 37.124 25.387 37.113 25.34 37.11C24.998 37.086 24.656 37.062 24.306 37.038C24.307 37.507 24.307 37.937 24.307 38.399ZM8.01298 11.349C8.01298 11.814 8.01298 12.25 8.01298 12.708C8.55398 12.738 9.08298 12.765 9.61798 12.795C9.61798 12.329 9.61798 11.892 9.61798 11.439C9.07698 11.409 8.54998 11.379 8.01298 11.349ZM8.01198 38.367C8.55798 38.329 9.08498 38.291 9.61898 38.254C9.61898 37.795 9.61898 37.359 9.61898 36.902C9.07798 36.937 8.54998 36.97 8.01198 37.005C8.01198 37.461 8.01198 37.898 8.01198 38.367ZM8.00098 14.809C8.00098 15.202 7.99798 15.616 8.00598 16.03C8.00698 16.067 8.08398 16.132 8.12598 16.133C8.61798 16.14 9.10798 16.137 9.61398 16.137C9.61398 15.728 9.61398 15.287 9.61398 14.809C9.07298 14.809 8.54998 14.809 8.00098 14.809ZM8.01298 17.857C8.55698 17.857 9.07998 17.857 9.61598 17.857C9.61598 17.425 9.61598 16.982 9.61598 16.509C9.07498 16.509 8.55098 16.509 8.01298 16.509C8.01298 16.933 8.01298 17.37 8.01298 17.857ZM9.62098 35.203C9.06998 35.234 8.54198 35.265 8.01398 35.294C8.01398 35.762 8.01398 36.199 8.01398 36.655C8.55698 36.621 9.08398 36.589 9.62098 36.556C9.62098 36.102 9.62098 35.672 9.62098 35.203ZM9.62098 19.914C9.07098 19.914 8.54998 19.914 8.01598 19.914C8.01598 20.358 8.01598 20.8 8.01598 21.261C8.56098 21.261 9.08898 21.261 9.62098 21.261C9.62098 20.81 9.62098 20.381 9.62098 19.914ZM9.62298 26.75C9.07198 26.75 8.54398 26.75 8.01698 26.75C8.01698 27.213 8.01698 27.655 8.01698 28.069C8.56198 28.069 9.08998 28.069 9.62298 28.069C9.62298 27.61 9.62298 27.187 9.62298 26.75ZM8.01198 29.777C8.55398 29.777 9.08198 29.777 9.61798 29.777C9.61798 29.307 9.61798 28.872 9.61798 28.45C9.07598 28.45 8.54798 28.45 8.01198 28.45C8.01198 28.918 8.01198 29.355 8.01198 29.777ZM17.78 9.937C17.229 9.937 16.699 9.937 16.171 9.937C16.171 10.392 16.171 10.826 16.171 11.248C16.719 11.248 17.247 11.248 17.78 11.248C17.78 10.799 17.78 10.376 17.78 9.937ZM15.728 9.933C15.183 9.933 14.654 9.933 14.117 9.933C14.117 10.376 14.117 10.805 14.117 11.254C14.656 11.254 15.186 11.254 15.728 11.254C15.728 10.822 15.728 10.392 15.728 9.933ZM14.121 19.627C14.663 19.627 15.191 19.627 15.725 19.627C15.725 19.18 15.725 18.747 15.725 18.314C15.18 18.314 14.651 18.314 14.121 18.314C14.121 18.76 14.121 19.189 14.121 19.627ZM14.118 29.685C14.671 29.685 15.2 29.685 15.729 29.685C15.729 29.233 15.729 28.803 15.729 28.371C15.188 28.371 14.659 28.371 14.118 28.371C14.118 28.82 14.118 29.249 14.118 29.685ZM13.686 21.655C13.139 21.655 12.61 21.655 12.074 21.655C12.074 22.1 12.074 22.53 12.074 22.978C12.616 22.978 13.146 22.978 13.686 22.978C13.686 22.538 13.686 22.107 13.686 21.655ZM14.126 21.666C14.126 22.114 14.126 22.548 14.126 22.978C14.673 22.978 15.202 22.978 15.729 22.978C15.729 22.532 15.729 22.102 15.729 21.666C15.186 21.666 14.657 21.666 14.126 21.666ZM10.043 21.277C10.582 21.277 11.111 21.277 11.641 21.277C11.641 20.838 11.641 20.407 11.641 19.954C11.103 19.954 10.575 19.954 10.043 19.954C10.043 20.394 10.043 20.824 10.043 21.277ZM13.683 25.027C13.135 25.027 12.606 25.027 12.071 25.027C12.071 25.475 12.071 25.905 12.071 26.345C12.61 26.345 13.141 26.345 13.683 26.345C13.683 25.901 13.683 25.471 13.683 25.027ZM15.736 25.023C15.185 25.023 14.656 25.023 14.127 25.023C14.127 25.472 14.127 25.906 14.127 26.334C14.675 26.334 15.203 26.334 15.736 26.334C15.736 25.893 15.736 25.47 15.736 25.023ZM11.645 26.727C11.094 26.727 10.569 26.727 10.044 26.727C10.044 27.185 10.044 27.614 10.044 28.042C10.583 28.042 11.111 28.042 11.645 28.042C11.645 27.591 11.645 27.161 11.645 26.727ZM11.639 24.671C11.639 24.221 11.639 23.786 11.639 23.343C11.101 23.343 10.575 23.343 10.048 23.343C10.048 23.794 10.048 24.229 10.048 24.671C10.589 24.671 11.11 24.671 11.639 24.671ZM10.043 29.73C10.582 29.73 11.109 29.73 11.639 29.73C11.639 29.269 11.639 28.84 11.639 28.421C11.099 28.421 10.572 28.421 10.043 28.421C10.043 28.881 10.043 29.31 10.043 29.73ZM10.043 38.23C10.583 38.205 11.111 38.18 11.638 38.154C11.638 37.695 11.638 37.265 11.638 36.808C11.098 36.832 10.57 36.857 10.043 36.881C10.043 37.345 10.043 37.776 10.043 38.23ZM13.688 33.43C13.135 33.43 12.606 33.43 12.08 33.43C12.08 33.893 12.08 34.328 12.08 34.736C12.627 34.736 13.156 34.736 13.688 34.736C13.688 34.277 13.688 33.854 13.688 33.43ZM10.042 12.835C10.585 12.835 11.112 12.835 11.633 12.835C11.633 12.409 11.633 11.973 11.633 11.504C11.095 11.504 10.575 11.504 10.042 11.504C10.042 11.92 10.042 12.35 10.042 12.835ZM12.073 31.379C12.626 31.379 13.154 31.379 13.683 31.379C13.683 30.92 13.683 30.492 13.683 30.069C13.141 30.069 12.612 30.069 12.073 30.069C12.073 30.522 12.073 30.95 12.073 31.379ZM11.639 31.791C11.1 31.791 10.574 31.791 10.045 31.791C10.045 32.262 10.045 32.698 10.045 33.108C10.586 33.108 11.113 33.108 11.639 33.108C11.639 32.638 11.639 32.209 11.639 31.791ZM16.163 38.066C16.72 38.066 17.248 38.066 17.771 38.066C17.771 37.621 17.771 37.193 17.771 36.749C17.227 36.749 16.698 36.749 16.163 36.749C16.163 37.19 16.163 37.62 16.163 38.066ZM14.123 36.751C14.123 37.214 14.123 37.641 14.123 38.064C14.668 38.064 15.197 38.064 15.731 38.064C15.731 37.616 15.731 37.187 15.731 36.751C15.193 36.751 14.664 36.751 14.123 36.751ZM11.639 34.808C11.639 34.326 11.639 33.898 11.639 33.491C11.1 33.491 10.573 33.491 10.043 33.491C10.043 33.961 10.043 34.389 10.043 34.808C10.578 34.808 11.099 34.808 11.639 34.808ZM12.077 14.939C12.077 15.378 12.077 15.806 12.077 16.259C12.621 16.259 13.149 16.259 13.686 16.259C13.686 15.825 13.686 15.396 13.686 14.939C13.148 14.939 12.618 14.939 12.077 14.939ZM10.04 14.518C10.584 14.518 11.105 14.518 11.636 14.518C11.636 14.095 11.636 13.661 11.636 13.195C11.095 13.195 10.569 13.195 10.04 13.195C10.04 13.627 10.04 14.049 10.04 14.518ZM11.633 19.592C11.633 19.145 11.633 18.711 11.633 18.256C11.093 18.256 10.571 18.256 10.05 18.256C10.05 18.706 10.05 19.141 10.05 19.592C10.584 19.592 11.1 19.592 11.633 19.592ZM13.69 26.709C13.139 26.709 12.609 26.709 12.072 26.709C12.072 27.157 12.072 27.586 12.072 28.014C12.617 28.014 13.15 28.014 13.69 28.014C13.69 27.565 13.69 27.143 13.69 26.709ZM12.078 11.577C12.078 12.004 12.078 12.439 12.078 12.9C12.622 12.9 13.149 12.9 13.687 12.9C13.687 12.47 13.687 12.041 13.687 11.577C13.152 11.577 12.623 11.577 12.078 11.577ZM10.051 30.097C10.051 30.577 10.051 31.012 10.051 31.426C10.592 31.426 11.113 31.426 11.638 31.426C11.638 30.957 11.638 30.523 11.638 30.097C11.102 30.097 10.581 30.097 10.051 30.097ZM12.073 38.097C12.624 38.097 13.153 38.097 13.683 38.097C13.683 37.633 13.683 37.204 13.683 36.791C13.141 36.791 12.613 36.791 12.073 36.791C12.073 37.25 12.073 37.679 12.073 38.097ZM13.69 38.47C13.14 38.47 12.611 38.47 12.08 38.47C12.08 38.94 12.08 39.376 12.08 39.784C12.628 39.784 13.156 39.784 13.69 39.784C13.69 39.319 13.69 38.895 13.69 38.47ZM12.073 36.419C12.619 36.419 13.153 36.419 13.681 36.419C13.681 35.954 13.681 35.525 13.681 35.109C13.137 35.109 12.609 35.109 12.073 35.109C12.073 35.571 12.073 36 12.073 36.419ZM15.73 16.635C15.182 16.635 14.654 16.635 14.12 16.635C14.12 17.076 14.12 17.504 14.12 17.952C14.661 17.952 15.19 17.952 15.73 17.952C15.73 17.52 15.73 17.09 15.73 16.635ZM13.681 17.939C13.681 17.489 13.681 17.062 13.681 16.615C13.137 16.615 12.608 16.615 12.081 16.615C12.081 17.057 12.081 17.492 12.081 17.939C12.624 17.939 13.146 17.939 13.681 17.939ZM14.121 23.342C14.121 23.792 14.121 24.219 14.121 24.652C14.664 24.652 15.192 24.652 15.73 24.652C15.73 24.212 15.73 23.784 15.73 23.342C15.192 23.342 14.664 23.342 14.121 23.342ZM16.168 38.427C16.168 38.87 16.168 39.297 16.168 39.741C16.713 39.741 17.241 39.741 17.771 39.741C17.771 39.296 17.771 38.867 17.771 38.427C17.233 38.427 16.71 38.427 16.168 38.427ZM16.162 9.564C16.719 9.564 17.249 9.564 17.769 9.564C17.769 9.113 17.769 8.684 17.769 8.268C17.221 8.268 16.691 8.268 16.162 8.268C16.162 8.713 16.162 9.136 16.162 9.564ZM13.681 21.294C13.681 20.853 13.681 20.418 13.681 19.977C13.137 19.977 12.609 19.977 12.074 19.977C12.074 20.422 12.074 20.851 12.074 21.294C12.613 21.294 13.143 21.294 13.681 21.294ZM14.122 30.05C14.122 30.504 14.122 30.933 14.122 31.36C14.667 31.36 15.197 31.36 15.727 31.36C15.727 30.913 15.727 30.484 15.727 30.05C15.189 30.05 14.664 30.05 14.122 30.05Z" fill="#2196F3"/>
<path d="M34.399 6.059C34.399 5.509 34.395 4.999 34.405 4.489C34.406 4.438 34.484 4.357 34.538 4.343C35.017 4.223 35.5 4.117 36.012 4C36.012 4.551 36.014 5.09 36.008 5.628C36.008 5.665 35.951 5.725 35.911 5.733C35.423 5.843 34.934 5.945 34.399 6.059ZM36.013 44C35.491 43.88 34.994 43.77 34.5 43.648C34.457 43.638 34.405 43.548 34.404 43.495C34.396 42.992 34.4 42.49 34.4 41.95C34.59 41.987 34.759 42.02 34.928 42.054C35.238 42.118 35.549 42.18 35.857 42.255C35.916 42.27 36.006 42.339 36.007 42.385C36.017 42.917 36.013 43.45 36.013 44ZM33.996 6.141C33.47 6.241 32.949 6.34 32.388 6.447C32.388 6.077 32.388 5.729 32.388 5.379C32.388 4.8 32.388 4.799 32.94 4.682C33.287 4.608 33.635 4.539 33.996 4.465C33.996 5.02 33.996 5.56 33.996 6.141ZM32.388 41.555C32.944 41.66 33.466 41.758 33.996 41.858C33.996 42.421 33.996 42.968 33.996 43.535C33.483 43.431 32.983 43.332 32.485 43.222C32.445 43.213 32.393 43.137 32.392 43.092C32.386 42.597 32.388 42.101 32.388 41.555ZM30.389 6.784C30.389 6.261 30.387 5.767 30.392 5.273C30.393 5.231 30.436 5.161 30.469 5.154C30.969 5.058 31.47 4.971 32 4.877C32 5.407 32.004 5.909 31.993 6.411C31.992 6.457 31.902 6.53 31.845 6.541C31.376 6.626 30.902 6.7 30.389 6.784ZM29.993 41.153C29.993 41.702 29.993 42.22 29.993 42.764C29.457 42.68 28.934 42.597 28.393 42.512C28.393 41.989 28.393 41.466 28.393 40.922C28.927 40.999 29.452 41.075 29.993 41.153ZM24.313 7.538C24.313 7.016 24.313 6.517 24.313 5.994C24.845 5.936 25.377 5.877 25.944 5.816C25.944 6.319 25.947 6.803 25.94 7.286C25.939 7.321 25.878 7.382 25.841 7.386C25.337 7.442 24.832 7.489 24.313 7.538ZM23.902 41.965C23.347 41.918 22.819 41.874 22.28 41.828C22.28 41.311 22.28 40.819 22.28 40.296C22.66 40.326 23.027 40.352 23.394 40.387C23.902 40.436 23.901 40.439 23.901 40.956C23.902 41.286 23.902 41.615 23.902 41.965ZM23.889 6.033C23.889 6.557 23.889 7.057 23.889 7.577C23.351 7.618 22.824 7.659 22.282 7.7C22.282 7.183 22.282 6.69 22.282 6.172C22.809 6.127 23.336 6.081 23.889 6.033ZM26.349 42.233C26.349 41.703 26.349 41.202 26.349 40.669C26.888 40.734 27.415 40.798 27.953 40.862C27.953 41.392 27.953 41.907 27.953 42.446C27.414 42.375 26.887 42.304 26.349 42.233ZM27.953 5.552C27.953 6.082 27.953 6.598 27.953 7.137C27.425 7.201 26.898 7.265 26.354 7.331C26.354 6.806 26.354 6.299 26.354 5.767C26.877 5.697 27.407 5.625 27.953 5.552ZM20.245 6.296C20.79 6.266 21.314 6.236 21.854 6.206C21.854 6.716 21.854 7.209 21.854 7.729C21.326 7.76 20.796 7.792 20.245 7.824C20.245 7.313 20.245 6.817 20.245 6.296ZM21.857 40.269C21.857 40.785 21.857 41.276 21.857 41.794C21.604 41.782 21.353 41.77 21.103 41.757C20.864 41.744 20.625 41.739 20.387 41.711C20.328 41.704 20.231 41.625 20.23 41.576C20.218 41.123 20.223 40.669 20.223 40.184C20.775 40.212 21.303 40.239 21.857 40.269ZM16.165 41.594C16.165 41.067 16.165 40.584 16.165 40.1C16.708 40.1 17.236 40.1 17.774 40.1C17.774 40.615 17.774 41.106 17.774 41.594C17.234 41.594 16.706 41.594 16.165 41.594ZM18.205 41.645C18.205 41.114 18.205 40.628 18.205 40.149C18.742 40.149 19.27 40.149 19.812 40.149C19.812 40.668 19.812 41.152 19.812 41.645C19.285 41.645 18.757 41.645 18.205 41.645ZM17.774 7.898C17.238 7.898 16.714 7.898 16.171 7.898C16.171 7.413 16.171 6.923 16.171 6.408C16.703 6.408 17.232 6.408 17.774 6.408C17.774 6.893 17.774 7.378 17.774 7.898ZM14.117 7.897C14.117 7.392 14.117 6.906 14.117 6.403C14.651 6.403 15.18 6.403 15.724 6.403C15.724 6.912 15.724 7.402 15.724 7.897C15.188 7.897 14.658 7.897 14.117 7.897ZM36.006 8.006C36.006 8.529 36.006 9.015 36.006 9.524C35.482 9.613 34.961 9.701 34.418 9.793C34.418 9.29 34.418 8.816 34.418 8.306C34.929 8.209 35.456 8.11 36.006 8.006ZM34.399 38.205C34.952 38.298 35.467 38.384 35.997 38.474C35.997 38.971 35.997 39.462 35.997 39.989C35.679 39.931 35.365 39.877 35.052 39.816C34.841 39.775 34.545 39.792 34.446 39.659C34.336 39.513 34.404 39.226 34.4 39C34.396 38.749 34.399 38.498 34.399 38.205ZM37.997 38.845C37.997 39.373 37.997 39.875 37.997 40.401C37.468 40.291 36.95 40.184 36.426 40.076C36.426 39.566 36.426 39.073 36.426 38.553C36.954 38.65 37.468 38.746 37.997 38.845ZM36.43 9.45C36.43 8.933 36.43 8.44 36.43 7.925C36.946 7.817 37.465 7.708 37.995 7.598C37.995 8.114 37.995 8.615 37.995 9.152C37.484 9.25 36.965 9.349 36.43 9.45ZM37.994 5.649C37.994 6.188 37.994 6.69 37.994 7.202C37.473 7.313 36.961 7.423 36.418 7.539C36.418 7.045 36.416 6.569 36.422 6.091C36.423 6.055 36.479 6 36.519 5.99C37.006 5.873 37.495 5.763 37.994 5.649ZM32.397 10.101C32.397 9.598 32.397 9.13 32.397 8.644C32.926 8.556 33.449 8.47 33.991 8.38C33.991 8.878 33.991 9.36 33.991 9.862C33.47 9.939 32.947 10.018 32.397 10.101ZM33.989 39.619C33.45 39.529 32.931 39.444 32.401 39.356C32.401 38.87 32.401 38.394 32.401 37.899C32.935 37.979 33.453 38.057 33.989 38.137C33.989 38.624 33.989 39.108 33.989 39.619ZM33.994 41.482C33.454 41.381 32.931 41.285 32.4 41.185C32.4 40.701 32.4 40.225 32.4 39.728C32.938 39.819 33.46 39.908 33.994 39.998C33.994 40.495 33.994 40.978 33.994 41.482ZM33.996 6.519C33.996 7.012 33.996 7.496 33.996 8C33.467 8.09 32.944 8.179 32.388 8.274C32.388 7.801 32.385 7.355 32.394 6.911C32.395 6.87 32.475 6.805 32.527 6.795C33.012 6.697 33.499 6.61 33.996 6.519ZM25.931 40.27C25.381 40.216 24.853 40.165 24.313 40.113C24.313 39.662 24.313 39.224 24.313 38.749C24.849 38.796 25.383 38.843 25.931 38.891C25.931 39.345 25.931 39.789 25.931 40.27ZM24.307 38.399C24.307 37.937 24.307 37.507 24.307 37.037C24.657 37.061 24.999 37.085 25.341 37.109C25.387 37.112 25.432 37.123 25.479 37.127C25.947 37.171 25.948 37.171 25.947 37.661C25.947 37.928 25.945 38.195 25.943 38.462C25.943 38.477 25.934 38.491 25.919 38.535C25.393 38.491 24.86 38.446 24.307 38.399ZM8.01298 11.349C8.54998 11.379 9.07698 11.409 9.61798 11.439C9.61798 11.891 9.61798 12.329 9.61798 12.795C9.08198 12.766 8.55398 12.738 8.01298 12.708C8.01298 12.25 8.01298 11.814 8.01298 11.349ZM8.01198 38.367C8.01198 37.898 8.01198 37.461 8.01198 37.004C8.55098 36.97 9.07798 36.936 9.61898 36.901C9.61898 37.358 9.61898 37.794 9.61898 38.253C9.08498 38.291 8.55798 38.329 8.01198 38.367ZM8.00098 14.809C8.55098 14.809 9.07298 14.809 9.61398 14.809C9.61398 15.287 9.61398 15.729 9.61398 16.137C9.10998 16.137 8.61798 16.14 8.12598 16.133C8.08398 16.132 8.00698 16.067 8.00598 16.03C7.99798 15.616 8.00098 15.202 8.00098 14.809ZM8.01298 17.857C8.01298 17.37 8.01298 16.933 8.01298 16.509C8.55098 16.509 9.07498 16.509 9.61598 16.509C9.61598 16.981 9.61598 17.425 9.61598 17.857C9.07998 17.857 8.55598 17.857 8.01298 17.857ZM9.62098 35.203C9.62098 35.672 9.62098 36.101 9.62098 36.556C9.08398 36.589 8.55698 36.621 8.01398 36.655C8.01398 36.199 8.01398 35.762 8.01398 35.294C8.54198 35.265 9.06898 35.235 9.62098 35.203ZM9.62098 19.914C9.62098 20.381 9.62098 20.811 9.62098 21.261C9.08898 21.261 8.56098 21.261 8.01598 21.261C8.01598 20.8 8.01598 20.358 8.01598 19.914C8.54998 19.914 9.07098 19.914 9.62098 19.914ZM9.62298 26.75C9.62298 27.187 9.62298 27.609 9.62298 28.069C9.08998 28.069 8.56298 28.069 8.01698 28.069C8.01698 27.654 8.01698 27.212 8.01698 26.75C8.54398 26.75 9.07198 26.75 9.62298 26.75ZM8.01198 29.777C8.01198 29.354 8.01198 28.918 8.01198 28.45C8.54798 28.45 9.07598 28.45 9.61798 28.45C9.61798 28.872 9.61798 29.307 9.61798 29.777C9.08198 29.777 8.55398 29.777 8.01198 29.777ZM17.78 9.937C17.78 10.376 17.78 10.8 17.78 11.248C17.247 11.248 16.719 11.248 16.171 11.248C16.171 10.826 16.171 10.392 16.171 9.937C16.7 9.937 17.229 9.937 17.78 9.937ZM15.728 9.933C15.728 10.393 15.728 10.822 15.728 11.254C15.186 11.254 14.658 11.254 14.117 11.254C14.117 10.805 14.117 10.377 14.117 9.933C14.654 9.933 15.183 9.933 15.728 9.933ZM14.121 19.627C14.121 19.189 14.121 18.76 14.121 18.314C14.651 18.314 15.179 18.314 15.725 18.314C15.725 18.747 15.725 19.18 15.725 19.627C15.191 19.627 14.663 19.627 14.121 19.627ZM14.118 29.685C14.118 29.248 14.118 28.819 14.118 28.371C14.658 28.371 15.187 28.371 15.729 28.371C15.729 28.803 15.729 29.233 15.729 29.685C15.2 29.685 14.672 29.685 14.118 29.685ZM13.686 21.655C13.686 22.107 13.686 22.538 13.686 22.978C13.147 22.978 12.616 22.978 12.074 22.978C12.074 22.53 12.074 22.101 12.074 21.655C12.609 21.655 13.139 21.655 13.686 21.655ZM14.126 21.666C14.657 21.666 15.186 21.666 15.729 21.666C15.729 22.103 15.729 22.532 15.729 22.978C15.202 22.978 14.674 22.978 14.126 22.978C14.126 22.548 14.126 22.114 14.126 21.666ZM10.043 21.277C10.043 20.824 10.043 20.394 10.043 19.954C10.575 19.954 11.103 19.954 11.641 19.954C11.641 20.408 11.641 20.838 11.641 21.277C11.111 21.277 10.583 21.277 10.043 21.277ZM13.683 25.027C13.683 25.471 13.683 25.901 13.683 26.345C13.141 26.345 12.611 26.345 12.071 26.345C12.071 25.905 12.071 25.475 12.071 25.027C12.606 25.027 13.136 25.027 13.683 25.027ZM15.736 25.023C15.736 25.47 15.736 25.893 15.736 26.334C15.203 26.334 14.675 26.334 14.127 26.334C14.127 25.905 14.127 25.471 14.127 25.023C14.655 25.023 15.185 25.023 15.736 25.023ZM11.645 26.727C11.645 27.161 11.645 27.591 11.645 28.042C11.111 28.042 10.585 28.042 10.044 28.042C10.044 27.614 10.044 27.185 10.044 26.727C10.568 26.727 11.094 26.727 11.645 26.727ZM11.639 24.671C11.109 24.671 10.587 24.671 10.048 24.671C10.048 24.229 10.048 23.795 10.048 23.343C10.575 23.343 11.101 23.343 11.639 23.343C11.639 23.786 11.639 24.223 11.639 24.671ZM10.043 29.73C10.043 29.31 10.043 28.88 10.043 28.421C10.571 28.421 11.099 28.421 11.639 28.421C11.639 28.839 11.639 29.268 11.639 29.73C11.109 29.73 10.582 29.73 10.043 29.73ZM10.043 38.23C10.043 37.774 10.043 37.345 10.043 36.881C10.571 36.857 11.098 36.833 11.638 36.808C11.638 37.265 11.638 37.695 11.638 38.154C11.111 38.18 10.584 38.205 10.043 38.23ZM13.688 33.43C13.688 33.853 13.688 34.276 13.688 34.736C13.155 34.736 12.627 34.736 12.08 34.736C12.08 34.329 12.08 33.893 12.08 33.43C12.606 33.43 13.135 33.43 13.688 33.43ZM10.042 12.835C10.042 12.35 10.042 11.92 10.042 11.504C10.575 11.504 11.095 11.504 11.633 11.504C11.633 11.974 11.633 12.409 11.633 12.835C11.112 12.835 10.586 12.835 10.042 12.835ZM12.073 31.379C12.073 30.95 12.073 30.522 12.073 30.069C12.612 30.069 13.141 30.069 13.683 30.069C13.683 30.492 13.683 30.919 13.683 31.379C13.153 31.379 12.626 31.379 12.073 31.379ZM11.639 31.791C11.639 32.208 11.639 32.637 11.639 33.108C11.113 33.108 10.587 33.108 10.045 33.108C10.045 32.698 10.045 32.263 10.045 31.791C10.573 31.791 11.1 31.791 11.639 31.791ZM16.163 38.066C16.163 37.619 16.163 37.19 16.163 36.749C16.698 36.749 17.227 36.749 17.771 36.749C17.771 37.193 17.771 37.621 17.771 38.066C17.248 38.066 16.721 38.066 16.163 38.066ZM14.123 36.751C14.664 36.751 15.193 36.751 15.731 36.751C15.731 37.187 15.731 37.615 15.731 38.064C15.197 38.064 14.668 38.064 14.123 38.064C14.123 37.643 14.123 37.215 14.123 36.751ZM11.639 34.808C11.1 34.808 10.577 34.808 10.043 34.808C10.043 34.39 10.043 33.96 10.043 33.491C10.572 33.491 11.1 33.491 11.639 33.491C11.639 33.897 11.639 34.326 11.639 34.808ZM12.077 14.939C12.618 14.939 13.147 14.939 13.686 14.939C13.686 15.395 13.686 15.824 13.686 16.259C13.149 16.259 12.621 16.259 12.077 16.259C12.077 15.807 12.077 15.378 12.077 14.939ZM10.04 14.518C10.04 14.049 10.04 13.627 10.04 13.195C10.569 13.195 11.095 13.195 11.636 13.195C11.636 13.66 11.636 14.094 11.636 14.518C11.105 14.518 10.584 14.518 10.04 14.518ZM11.633 19.592C11.101 19.592 10.584 19.592 10.05 19.592C10.05 19.142 10.05 18.706 10.05 18.256C10.572 18.256 11.093 18.256 11.633 18.256C11.633 18.71 11.633 19.145 11.633 19.592ZM13.69 26.709C13.69 27.143 13.69 27.565 13.69 28.014C13.151 28.014 12.617 28.014 12.072 28.014C12.072 27.585 12.072 27.157 12.072 26.709C12.609 26.709 13.137 26.709 13.69 26.709ZM12.078 11.577C12.623 11.577 13.152 11.577 13.687 11.577C13.687 12.04 13.687 12.469 13.687 12.9C13.15 12.9 12.622 12.9 12.078 12.9C12.078 12.439 12.078 12.004 12.078 11.577ZM10.051 30.097C10.581 30.097 11.103 30.097 11.638 30.097C11.638 30.522 11.638 30.957 11.638 31.426C11.114 31.426 10.592 31.426 10.051 31.426C10.051 31.011 10.051 30.576 10.051 30.097ZM12.073 38.097C12.073 37.68 12.073 37.251 12.073 36.791C12.612 36.791 13.141 36.791 13.683 36.791C13.683 37.204 13.683 37.633 13.683 38.097C13.153 38.097 12.625 38.097 12.073 38.097ZM13.69 38.47C13.69 38.895 13.69 39.32 13.69 39.784C13.156 39.784 12.628 39.784 12.08 39.784C12.08 39.376 12.08 38.941 12.08 38.47C12.611 38.47 13.14 38.47 13.69 38.47ZM12.073 36.419C12.073 36 12.073 35.571 12.073 35.109C12.608 35.109 13.137 35.109 13.681 35.109C13.681 35.525 13.681 35.953 13.681 36.419C13.153 36.419 12.619 36.419 12.073 36.419ZM15.73 16.635C15.73 17.091 15.73 17.519 15.73 17.952C15.19 17.952 14.661 17.952 14.12 17.952C14.12 17.504 14.12 17.076 14.12 16.635C14.653 16.635 15.182 16.635 15.73 16.635ZM13.681 17.939C13.147 17.939 12.624 17.939 12.081 17.939C12.081 17.491 12.081 17.057 12.081 16.615C12.607 16.615 13.136 16.615 13.681 16.615C13.681 17.062 13.681 17.49 13.681 17.939ZM14.121 23.342C14.663 23.342 15.191 23.342 15.73 23.342C15.73 23.785 15.73 24.212 15.73 24.652C15.192 24.652 14.664 24.652 14.121 24.652C14.121 24.219 14.121 23.791 14.121 23.342ZM16.168 38.427C16.709 38.427 17.232 38.427 17.771 38.427C17.771 38.868 17.771 39.296 17.771 39.741C17.241 39.741 16.713 39.741 16.168 39.741C16.168 39.297 16.168 38.87 16.168 38.427ZM16.162 9.564C16.162 9.136 16.162 8.713 16.162 8.268C16.69 8.268 17.22 8.268 17.769 8.268C17.769 8.684 17.769 9.112 17.769 9.564C17.249 9.564 16.72 9.564 16.162 9.564ZM13.681 21.294C13.142 21.294 12.613 21.294 12.074 21.294C12.074 20.851 12.074 20.421 12.074 19.977C12.609 19.977 13.138 19.977 13.681 19.977C13.681 20.418 13.681 20.853 13.681 21.294ZM14.122 30.05C14.665 30.05 15.189 30.05 15.727 30.05C15.727 30.485 15.727 30.913 15.727 31.36C15.197 31.36 14.667 31.36 14.122 31.36C14.122 30.932 14.122 30.503 14.122 30.05Z" fill="#2196F3"/>
<path d="M39.938 30.085C39.838 29.073 39.574 28.112 39.069 27.222C38.912 26.945 38.748 26.782 38.406 26.815C38.124 26.842 37.835 26.796 37.549 26.783C37.181 26.766 36.813 26.749 36.432 26.731C36.432 26.17 36.423 25.635 36.437 25.101C36.441 24.935 36.385 24.856 36.24 24.812C35.604 24.621 34.971 24.413 34.33 24.239C33.961 24.139 33.577 24.094 33.19 24.022C33.19 23.832 33.19 23.659 33.19 23.486C33.19 22.867 33.191 22.87 33.773 22.664C34.784 22.307 35.784 21.93 36.641 21.249C37.599 20.487 38.288 19.526 38.694 18.363C39.062 17.313 39.094 16.22 39.016 15.121C38.956 14.278 38.767 13.463 38.376 12.71C38.07 12.12 37.63 11.644 37.07 11.298C35.882 10.565 34.574 10.368 33.211 10.445C32.813 10.468 32.414 10.495 32.01 10.52C32.002 10.383 31.995 10.27 31.989 10.151C31.456 10.219 30.948 10.283 30.431 10.348C30.431 9.86 30.431 9.413 30.431 8.953C30.956 8.874 31.473 8.796 31.991 8.717C31.991 8.096 31.991 7.5 31.991 6.91C30.104 7.177 28.226 7.443 26.332 7.711C26.332 8.854 26.332 9.994 26.332 11.174C25.147 11.228 23.976 11.282 22.791 11.336C22.791 10.859 22.791 10.413 22.791 9.954C23.3 9.924 23.798 9.896 24.29 9.868C24.29 9.185 24.29 8.538 24.29 7.918C22.249 8.032 20.23 8.146 18.188 8.26C18.188 9.367 18.188 10.465 18.188 11.587C16.821 11.587 15.477 11.587 14.12 11.587C14.12 12.157 14.12 12.703 14.12 13.291C14.655 13.291 15.177 13.291 15.702 13.291C15.702 13.761 15.702 14.188 15.702 14.608C15.161 14.608 14.638 14.608 14.124 14.608C14.124 15.168 14.124 15.715 14.124 16.286C14.804 16.286 15.466 16.286 16.16 16.286C16.16 18.091 16.16 19.873 16.16 21.676C16.698 21.676 17.206 21.676 17.715 21.676C17.715 22.118 17.715 22.537 17.715 22.98C17.191 22.98 16.683 22.98 16.165 22.98C16.165 23.67 16.165 24.334 16.165 25.03C16.691 25.03 17.204 25.03 17.722 25.03C17.722 25.474 17.722 25.889 17.722 26.335C17.199 26.335 16.685 26.335 16.145 26.335C16.145 28.141 16.145 29.917 16.145 31.715C15.454 31.715 14.792 31.715 14.125 31.715C14.125 32.861 14.125 33.983 14.125 35.105C14.649 35.105 15.157 35.105 15.696 35.105C15.696 35.536 15.696 35.955 15.696 36.408C16.544 36.408 17.362 36.408 18.208 36.408C18.208 37.548 18.208 38.653 18.208 39.751C19.587 39.813 20.936 39.874 22.32 39.935C22.32 39.503 22.32 39.084 22.32 38.648C22.86 38.696 23.366 38.74 23.898 38.787C23.898 38.067 23.898 37.37 23.898 36.646C24.726 36.71 25.525 36.772 26.346 36.836C26.346 38.006 26.346 39.152 26.346 40.281C28.242 40.549 30.115 40.814 32.008 41.082C32.008 39.88 32.008 38.686 32.008 37.469C32.347 37.493 32.648 37.515 32.948 37.537C33.987 37.611 35.017 37.597 36.034 37.32C37.91 36.81 39.185 35.677 39.698 33.732C40.015 32.537 40.059 31.316 39.938 30.085ZM36.449 13.411C36.949 13.336 37.457 13.261 37.994 13.181C37.994 13.708 37.994 14.217 37.994 14.753C37.487 14.816 36.977 14.88 36.449 14.946C36.449 14.433 36.449 13.936 36.449 13.411ZM36.443 17.338C36.958 17.289 37.463 17.241 37.987 17.191C37.987 17.712 37.987 18.225 37.987 18.766C37.481 18.8 36.97 18.835 36.443 18.87C36.443 18.338 36.443 17.845 36.443 17.338ZM20.265 13.148C20.803 13.121 21.323 13.096 21.857 13.07C21.857 13.526 21.857 13.954 21.857 14.406C21.324 14.43 20.803 14.455 20.265 14.479C20.265 14.031 20.265 13.603 20.265 13.148ZM21.232 18.325C21.232 18.748 21.232 19.167 21.232 19.606C20.715 19.606 20.194 19.606 19.655 19.606C19.655 19.189 19.655 18.77 19.655 18.325C20.182 18.325 20.698 18.325 21.232 18.325ZM18.24 13.209C18.766 13.209 19.28 13.209 19.809 13.209C19.809 13.616 19.809 14.044 19.809 14.506C19.286 14.506 18.771 14.506 18.24 14.506C18.24 14.102 18.24 13.674 18.24 13.209ZM17.374 17.939C17.374 17.504 17.374 17.082 17.374 16.647C17.898 16.647 18.42 16.647 18.958 16.647C18.958 17.084 18.958 17.504 18.958 17.939C18.419 17.939 17.902 17.939 17.374 17.939ZM17.777 34.733C17.25 34.733 16.73 34.733 16.195 34.733C16.195 34.32 16.195 33.892 16.195 33.437C16.72 33.437 17.235 33.437 17.777 33.437C17.777 33.858 17.777 34.279 17.777 34.733ZM19.409 31.353C18.876 31.353 18.355 31.353 17.82 31.353C17.82 30.932 17.82 30.511 17.82 30.069C18.345 30.069 18.865 30.069 19.409 30.069C19.409 30.495 19.409 30.916 19.409 31.353ZM19.41 29.671C18.88 29.671 18.359 29.671 17.822 29.671C17.822 29.253 17.822 28.833 17.822 28.388C18.349 28.388 18.869 28.388 19.41 28.388C19.41 28.818 19.41 29.233 19.41 29.671ZM19.461 23.347C19.982 23.347 20.502 23.347 21.034 23.347C21.034 23.778 21.034 24.207 21.034 24.65C20.514 24.65 20 24.65 19.461 24.65C19.461 24.213 19.461 23.79 19.461 23.347ZM21.863 38.056C21.335 38.056 20.808 38.056 20.268 38.056C20.268 37.622 20.268 37.208 20.268 36.773C20.796 36.773 21.322 36.773 21.863 36.773C21.863 37.198 21.863 37.62 21.863 38.056ZM23.242 15.501C23.377 15.492 27.658 15.276 28.174 15.262C31.513 15.176 31.423 16.635 31.447 17.697C31.491 19.646 30.692 21.399 26.677 21.714C26.541 21.724 23.289 21.863 23.242 21.863C23.242 19.736 23.242 17.628 23.242 15.501ZM25.98 34.928C25.717 34.916 24.672 34.866 24.405 34.854C24.405 34.417 24.405 33.982 24.405 33.569C24.926 33.569 25.447 33.569 25.98 33.569C25.98 34.039 25.98 34.469 25.98 34.928ZM30.042 35.222C29.652 35.192 28.602 35.108 28.468 35.098C28.468 34.649 28.468 34.208 28.468 33.738C28.868 33.767 29.257 33.794 29.649 33.821C29.78 33.831 29.911 33.839 30.042 33.849C30.042 34.308 30.042 34.75 30.042 35.222ZM32.239 30.984C32.142 31.355 31.869 32.746 28.646 32.742C27.857 32.741 23.355 32.553 23.24 32.553C23.24 30.406 23.24 28.314 23.24 26.19C23.34 26.19 26.201 26.252 26.676 26.278C31.699 26.549 31.82 27.534 32.33 29.367C32.477 29.893 32.379 30.452 32.239 30.984ZM37.993 32.81C37.476 32.749 36.971 32.689 36.45 32.627C36.45 32.123 36.45 31.624 36.45 31.09C36.957 31.14 37.467 31.189 37.993 31.24C37.993 31.777 37.993 32.284 37.993 32.81Z" fill="#2196F3"/>
</svg>
