<svg width="48" height="48" viewBox="0 0 48 48" fill="none" xmlns="http://www.w3.org/2000/svg">
<path fill-rule="evenodd" clip-rule="evenodd" d="M22.903 3.28599C23.582 2.90499 24.418 2.90499 25.096 3.28599C28.451 5.16899 38.547 10.837 41.903 12.72C42.582 13.1 43 13.804 43 14.566C43 18.332 43 29.667 43 33.433C43 34.195 42.582 34.899 41.903 35.28C38.548 37.163 28.452 42.831 25.096 44.714C24.417 45.095 23.581 45.095 22.903 44.714C19.548 42.831 9.452 37.163 6.096 35.28C5.418 34.899 5 34.196 5 33.434C5 29.668 5 18.333 5 14.567C5 13.805 5.418 13.101 6.097 12.72C9.451 10.837 19.549 5.16899 22.903 3.28599Z" fill="#68207B"/>
<path fill-rule="evenodd" clip-rule="evenodd" d="M5.304 34.404C5.038 34.048 5 33.71 5 33.255C5 29.511 5 18.241 5 14.496C5 13.738 5.417 13.038 6.094 12.66C9.437 10.788 19.499 5.15301 22.842 3.28001C23.519 2.90101 24.436 2.90901 25.113 3.28801C28.456 5.16001 38.484 10.747 41.827 12.619C42.097 12.771 42.303 12.954 42.487 13.195L5.304 34.404Z" fill="#963DAD"/>
<path fill-rule="evenodd" clip-rule="evenodd" d="M24 10C31.727 10 38 16.273 38 24C38 31.727 31.727 38 24 38C16.273 38 10 31.727 10 24C10 16.273 16.273 10 24 10ZM24 17C27.863 17 31 20.136 31 24C31 27.863 27.863 31 24 31C20.137 31 17 27.863 17 24C17 20.136 20.136 17 24 17Z" fill="white"/>
<path fill-rule="evenodd" clip-rule="evenodd" d="M42.485 13.205C43.001 13.688 42.991 14.416 42.991 14.989C42.991 18.784 42.959 29.578 43 33.373C43.004 33.769 42.873 34.186 42.677 34.5L23.593 24L42.485 13.205Z" fill="#812B98"/>
<path fill-rule="evenodd" clip-rule="evenodd" d="M34 20H35V28H34V20ZM37 20H38V28H37V20Z" fill="white"/>
<path fill-rule="evenodd" clip-rule="evenodd" d="M32 25H40V26H32V25ZM32 22H40V23H32V22Z" fill="white"/>
</svg>
