<svg width="48" height="48" viewBox="0 0 48 48" fill="none" xmlns="http://www.w3.org/2000/svg">
<path d="M5.80312 15.3506V19.4119C5.41144 19.3111 4.94124 19.2769 4.515 19.2769C1.77036 19.2769 0 20.9978 0 23.6494C0 26.4026 1.66855 27.8343 4.87687 27.8381C5.94824 27.8381 6.94066 27.74 8.28562 27.4856V15.3506H5.80312ZM9.83625 15.3637V18.0319H12.4631V15.3637H9.83625ZM9.83625 19.2V24.5906C9.83625 26.8543 9.71848 27.7157 9.34312 28.4587C8.98504 29.1855 8.42343 29.6602 7.26375 30.1987L9.70125 31.3481C10.8609 30.7712 11.4219 30.25 11.8481 29.4225C12.3041 28.5623 12.4594 27.5643 12.4594 25.4887V19.2H9.83625ZM43.7437 19.2C41.0471 19.2 39.3648 20.8914 39.36 23.6044C39.36 26.2175 40.9902 27.84 43.6369 27.84C46.3172 27.84 48 26.151 48 23.4544C48 20.824 46.3866 19.2 43.7437 19.2ZM17.3606 19.2769C16.199 19.2769 15.1358 19.5146 14.0231 20.0512L14.0269 22.0556C15.0099 21.5343 16.0563 21.2644 16.9875 21.2644C17.623 21.2644 17.8538 21.4352 17.8538 21.9056V22.4756C14.7625 22.7425 13.5037 23.5843 13.5037 25.4025C13.5037 27.0835 14.4517 27.84 16.5637 27.84C17.6082 27.84 19.032 27.7202 20.16 27.5531V22.29C20.16 21.2129 20.0918 20.7081 19.8806 20.3212C19.5043 19.63 18.6547 19.2769 17.3606 19.2769ZM25.8412 19.2769C24.5472 19.2769 23.2695 19.4605 21.7181 19.8656V27.735H24.3412V21.555C24.8692 21.4014 25.1916 21.3694 25.5506 21.3694C26.4866 21.3694 26.925 21.7407 26.925 22.7381V27.735H29.4562V22.635C29.4562 21.3361 29.2824 20.7271 28.7381 20.1712C28.1602 19.5818 27.1862 19.2769 25.8412 19.2769ZM36.2738 19.2919C32.4405 19.2919 30.2737 20.9607 30.2737 23.9175C30.2737 26.2983 31.7367 27.8025 34.0387 27.8025C34.7184 27.8025 35.2324 27.6996 35.7431 27.4481V27.4969C35.7431 29.1509 35.0091 29.8444 33.2887 29.8444C32.3144 29.8444 31.395 29.6267 30.4762 29.1544H30.4744V31.5562C31.3941 31.9114 32.2794 32.0625 33.3037 32.0625C35.3159 32.0625 36.7327 31.4359 37.5506 30.1706C38.1113 29.3076 38.3006 28.2607 38.3006 26.0306V25.3219C38.2833 24.9667 38.2842 24.6121 38.2669 24.2569L38.25 22.8375L38.2162 21.7387V21.4669C38.7433 21.5168 38.1024 21.4037 38.8013 21.5381L39.7012 19.6631C38.4408 19.4087 37.3998 19.2919 36.2738 19.2919ZM43.7062 21.2719C44.72 21.2719 45.3019 22.1079 45.3019 23.5162C45.3019 24.9409 44.7041 25.7625 43.6894 25.7625C42.6612 25.7625 42.0562 24.9409 42.0562 23.5162C42.0562 22.0916 42.657 21.2719 43.7062 21.2719ZM4.77187 21.3694C5.09578 21.3694 5.49427 21.404 5.80125 21.5044V25.6781C5.42589 25.728 5.04588 25.7456 4.755 25.7456C3.41004 25.7456 2.67562 24.9811 2.67562 23.5987C2.67562 22.1789 3.44323 21.3694 4.77187 21.3694ZM35.4188 21.3862H35.6081H35.6925V21.5869L35.7094 22.4475L35.7262 23.6475C35.7262 24.0017 35.7431 24.3407 35.7431 24.645V25.3537V25.5431C35.4052 25.6439 35.115 25.71 34.7569 25.71C33.5972 25.71 32.9475 24.9651 32.9475 23.6662C32.9475 22.7552 33.2712 22.1127 33.9 21.7575C34.309 21.5031 34.908 21.3699 35.4188 21.3862ZM17.9681 24.1706V25.905C17.4785 25.9885 17.1332 26.0231 16.7569 26.0231C16.0686 26.0231 15.7575 25.7865 15.7575 25.2825C15.7575 24.6095 16.3006 24.3377 17.9681 24.1706Z" fill="#103E2E"/>
</svg>
