<svg width="48" height="48" viewBox="0 0 48 48" fill="none" xmlns="http://www.w3.org/2000/svg">
<path d="M47.7398 10.56H46.9238C45.9149 10.56 44.9645 11.0304 44.351 11.831L35.999 22.753L27.647 11.831C27.0355 11.0304 26.0842 10.56 25.0762 10.56H24.2602L34.7923 24.3322L24.0346 38.4H24.8506C25.8595 38.4 26.8099 37.9296 27.4224 37.129L36 25.9123L44.5776 37.129C45.1901 37.9296 46.1405 38.4 47.1494 38.4H47.9654L37.2077 24.3322L47.7398 10.56ZM20.4374 32.8723C17.9856 36.5981 13.1587 38.5075 8.544 36.8237C4.48416 35.3424 1.92 31.3066 1.92 26.9846V25.92H13.44H24V21.9514C24 15.7066 19.3747 10.2394 13.1568 9.65472C6.02208 8.98368 0 14.6016 0 21.6V26.9501C0 32.1062 3.0864 36.8995 7.93824 38.6458C14.2771 40.9267 20.9443 37.5226 23.1984 31.68H22.5859C21.7114 31.68 20.9174 32.1418 20.4374 32.8723ZM1.92 21.6C1.92 16.0416 6.4416 11.52 12 11.52C17.5584 11.52 22.08 16.0416 22.08 21.6V24H1.92V21.6Z" fill="black"/>
</svg>
