<svg width="48" height="48" viewBox="0 0 48 48" fill="none" xmlns="http://www.w3.org/2000/svg">
<path d="M44 24C44 35.044 35.044 44 24 44C12.956 44 4 35.044 4 24C4 12.956 12.956 4 24 4C35.044 4 44 12.956 44 24Z" fill="white"/>
<path d="M24 4C13 4 4 13 4 24C4 35 13 44 24 44C35 44 44 35 44 24C44 13 35 4 24 4ZM12.856 35.144C9.856 32.144 8.285 28.144 8.285 24.288L23.856 39.715C19.856 39.571 15.856 38.143 12.856 35.144ZM27.427 39.288L8.714 20.571C10.285 13.571 16.571 8.285 24 8.285C29.286 8.285 33.856 10.856 36.714 14.714L34.57 16.57C32.143 13.285 28.285 11.143 23.999 11.143C18.428 11.143 13.713 14.714 11.855 19.714L28.284 36.143C32.428 34.714 35.57 31.143 36.57 26.857H29.714V24H39.714C39.714 31.429 34.428 37.714 27.428 39.286L27.427 39.288Z" fill="#6A1B9A"/>
</svg>
