<svg width="48" height="48" viewBox="0 0 48 48" fill="none" xmlns="http://www.w3.org/2000/svg">
<path d="M35.547 42.431L32.365 39.249L30.244 41.37L33.426 44.552C34.012 45.138 34.962 45.138 35.547 44.552C36.132 43.966 36.133 43.017 35.547 42.431ZM38.547 24.431L35.365 21.249L33.244 23.37L36.426 26.552C37.012 27.138 37.962 27.138 38.547 26.552C39.132 25.966 39.133 25.017 38.547 24.431ZM12.683 42.431L15.865 39.249L17.986 41.37L14.804 44.552C14.218 45.138 13.268 45.138 12.683 44.552C12.098 43.966 12.097 43.017 12.683 42.431ZM9.43299 24.431L12.615 21.249L14.736 23.37L11.554 26.552C10.968 27.138 10.018 27.138 9.43299 26.552C8.84799 25.966 8.84699 25.017 9.43299 24.431Z" fill="#FFCC80"/>
<path d="M38 8C38 6.067 36.851 5 34.769 5C32.687 5 31 7.567 31 9.5C31 10.5 32.923 11 34 11C36.082 11 38 9.933 38 8ZM10 8C10 6.067 11.149 5 13.231 5C15.313 5 17 7.567 17 9.5C17 10.5 15.077 11 14 11C11.918 11 10 9.933 10 8Z" fill="#4DD0E1"/>
<path d="M35 7C34.7348 7 34.4804 7.10536 34.2929 7.29289C34.1054 7.48043 34 7.73478 34 8C34 8.26522 34.1054 8.51957 34.2929 8.70711C34.4804 8.89464 34.7348 9 35 9C35.2652 9 35.5196 8.89464 35.7071 8.70711C35.8946 8.51957 36 8.26522 36 8C36 7.73478 35.8946 7.48043 35.7071 7.29289C35.5196 7.10536 35.2652 7 35 7ZM13 7C12.7348 7 12.4804 7.10536 12.2929 7.29289C12.1054 7.48043 12 7.73478 12 8C12 8.26522 12.1054 8.51957 12.2929 8.70711C12.4804 8.89464 12.7348 9 13 9C13.2652 9 13.5196 8.89464 13.7071 8.70711C13.8946 8.51957 14 8.26522 14 8C14 7.73478 13.8946 7.48043 13.7071 7.29289C13.5196 7.10536 13.2652 7 13 7Z" fill="#424242"/>
<path d="M37 34C37 38.774 33.781 44 23.69 44C15.568 44 11 38.774 11 34C11 29 12 28.194 12 24C12 19.312 12 17 12 14C12 9.226 15.076 3 23.69 3C32.304 3 36 6.991 36 13C36 16 35.763 18.453 36 23C36.186 26.562 37 31 37 34Z" fill="#4DD0E1"/>
<path d="M29 6C27.9391 6 26.9217 6.42143 26.1716 7.17157C25.4214 7.92172 25 8.93913 25 10C25 11.0609 25.4214 12.0783 26.1716 12.8284C26.9217 13.5786 27.9391 14 29 14C30.0609 14 31.0783 13.5786 31.8284 12.8284C32.5786 12.0783 33 11.0609 33 10C33 8.93913 32.5786 7.92172 31.8284 7.17157C31.0783 6.42143 30.0609 6 29 6ZM19 6C17.9391 6 16.9217 6.42143 16.1716 7.17157C15.4214 7.92172 15 8.93913 15 10C15 11.0609 15.4214 12.0783 16.1716 12.8284C16.9217 13.5786 17.9391 14 19 14C20.0609 14 21.0783 13.5786 21.8284 12.8284C22.5786 12.0783 23 11.0609 23 10C23 8.93913 22.5786 7.92172 21.8284 7.17157C21.0783 6.42143 20.0609 6 19 6Z" fill="#F5F5F5"/>
<path d="M24 20C24 20.552 24.448 21 25 21C25.552 21 26 20.552 26 20V17H24V20ZM22 20C22 20.552 22.448 21 23 21C23.552 21 24 20.552 24 20V17H22V20Z" fill="#EEEEEE"/>
<path d="M26.5 18C26.088 18 25.847 17.915 25.489 17.795C24.514 17.467 23.468 17.469 22.493 17.797C22.138 17.916 21.91 18 21.5 18C20.166 18 20 17 20 16.5C20 15 21.5 14 23 14C23.835 14 24.165 14 25 14C26.5 14 28 15 28 16.5C28 17 27.834 18 26.5 18Z" fill="#FFCC80"/>
<path d="M27 9C26.7348 9 26.4804 9.10536 26.2929 9.29289C26.1054 9.48043 26 9.73478 26 10C26 10.2652 26.1054 10.5196 26.2929 10.7071C26.4804 10.8946 26.7348 11 27 11C27.2652 11 27.5196 10.8946 27.7071 10.7071C27.8946 10.5196 28 10.2652 28 10C28 9.73478 27.8946 9.48043 27.7071 9.29289C27.5196 9.10536 27.2652 9 27 9ZM17 9C16.7348 9 16.4804 9.10536 16.2929 9.29289C16.1054 9.48043 16 9.73478 16 10C16 10.2652 16.1054 10.5196 16.2929 10.7071C16.4804 10.8946 16.7348 11 17 11C17.2652 11 17.5196 10.8946 17.7071 10.7071C17.8946 10.5196 18 10.2652 18 10C18 9.73478 17.8946 9.48043 17.7071 9.29289C17.5196 9.10536 17.2652 9 17 9ZM24 13C23.4696 13 22.9609 13.1054 22.5858 13.2929C22.2107 13.4804 22 13.7348 22 14C22 14.2652 22.2107 14.5196 22.5858 14.7071C22.9609 14.8946 23.4696 15 24 15C24.5304 15 25.0391 14.8946 25.4142 14.7071C25.7893 14.5196 26 14.2652 26 14C26 13.7348 25.7893 13.4804 25.4142 13.2929C25.0391 13.1054 24.5304 13 24 13Z" fill="#424242"/>
</svg>
