<svg width="48" height="48" viewBox="0 0 48 48" fill="none" xmlns="http://www.w3.org/2000/svg">
<path d="M28.6725 2.88749C28.5712 2.90249 28.47 2.93249 28.3725 2.97749C27.5475 3.38624 26.61 4.60124 26.43 4.84124C26.4187 4.85624 26.4075 4.87124 26.4 4.88624C25.4737 6.27374 24.9787 7.89749 24.96 9.58874C24.9487 10.8562 25.1962 12.1125 25.6987 13.3237C26.8687 16.1325 29.2987 18.4575 32.19 19.545C32.2875 19.5787 32.3812 19.6125 32.55 19.6725C32.565 19.68 32.7075 19.725 32.73 19.7287L32.835 19.7662C32.985 19.815 33.1387 19.8637 33.2887 19.8937C34.05 20.0475 34.7925 20.1337 35.49 20.1562C35.61 20.1562 35.73 20.16 35.85 20.16C41.1112 20.16 43.1512 16.4475 43.83 15.21C43.8975 15.09 43.9462 14.9925 43.9912 14.9325C43.9912 14.9287 43.9912 14.9287 43.995 14.925C44.2912 14.4862 44.1787 13.89 43.74 13.59C43.305 13.2937 42.7087 13.4062 42.4087 13.845H42.405C41.0025 15.9112 38.6025 16.5375 35.2762 15.7125C35.0287 15.6525 34.7587 15.5587 34.5187 15.4687C34.2037 15.3562 33.8887 15.225 33.5962 15.0825C33.015 14.7937 32.4675 14.4487 31.9725 14.0662C29.0475 11.7975 27.9037 7.07624 29.6137 4.34999C29.8425 3.98624 29.8012 3.51374 29.5125 3.19499C29.295 2.95499 28.98 2.84624 28.6725 2.88749ZM20.1675 4.79999C19.95 4.79624 19.7287 4.86749 19.5487 5.01749C18.0975 6.19874 16.6125 8.13374 16.5487 8.21249C16.5412 8.22749 16.5337 8.23874 16.5225 8.25374C13.8975 12.075 13.6987 17.5125 16.02 22.1062C16.3837 22.8337 16.7962 23.5275 17.235 24.165L17.3662 24.3525C17.7375 24.8962 18.1537 25.5112 18.6862 25.9912C18.87 26.2012 19.0687 26.4037 19.2637 26.5987L19.3575 26.6962L19.4362 26.775C19.635 26.9662 19.8375 27.1612 20.0475 27.3487H20.0512C20.0662 27.3712 20.0887 27.3862 20.1075 27.405C20.3437 27.615 20.5837 27.8137 20.9025 28.065L20.9887 28.1287C21.2362 28.3275 21.4875 28.515 21.7462 28.6987C21.7725 28.7175 21.7987 28.7362 21.825 28.755C21.915 28.815 22.005 28.8712 22.095 28.935L22.185 28.995L22.29 29.0625C22.4812 29.19 22.6687 29.3062 22.935 29.46C23.1075 29.565 23.2912 29.67 23.4112 29.73C23.4637 29.76 23.52 29.79 23.6512 29.8612L23.9437 30.015C23.9587 30.0225 24.0262 30.0525 24.0412 30.06C24.2325 30.1575 24.4312 30.2512 24.63 30.3412L24.9337 30.4762C25.1325 30.5625 25.335 30.645 25.5825 30.7387L25.695 30.78C25.7025 30.7875 25.7962 30.8212 25.8037 30.825C25.9837 30.8887 26.1675 30.9525 26.3512 31.0125L26.7712 31.1512C26.9812 31.2225 27.225 31.305 27.4912 31.35C28.8 31.5675 30.0712 31.68 31.275 31.68C31.4175 31.68 31.56 31.6762 31.6987 31.6762C42.2962 31.4437 45.0525 22.44 45.0787 22.35C45.21 21.8962 44.9962 21.4125 44.5687 21.21C44.1412 21.0075 43.6312 21.15 43.365 21.54C40.68 25.4625 35.6025 27.12 30.4312 25.755C30.1912 25.695 29.9587 25.6275 29.67 25.5337C29.6212 25.5187 29.58 25.5037 29.5012 25.4737C29.3325 25.4212 29.1675 25.365 28.98 25.2937L28.7137 25.1925C28.56 25.1325 28.4062 25.0725 28.2187 24.99L28.095 24.9337C27.8662 24.8362 27.645 24.7275 27.4462 24.63L26.8987 24.345C26.775 24.285 26.6662 24.2175 26.4975 24.1162L26.4037 24.0637L26.31 24.0075C26.1712 23.925 26.0325 23.8387 25.905 23.7487L25.815 23.6925C25.8075 23.6887 25.7325 23.6362 25.725 23.6287C25.6125 23.5575 25.5037 23.4862 25.3987 23.4187C25.1662 23.2537 24.9375 23.0812 24.6712 22.8712L24.5662 22.785C22.0912 20.8087 20.2612 18.1687 19.4025 15.3375C18.6037 12.7387 19.1962 9.33749 20.9887 6.23999C21.2212 5.83874 21.135 5.32874 20.7787 5.02874C20.6025 4.87874 20.385 4.79999 20.1675 4.79999ZM9.60373 7.67999C9.37498 7.67999 9.14248 7.76249 8.95873 7.92749C7.12498 9.57374 5.75248 11.7075 5.60248 11.9512C1.67998 17.6625 2.43748 26.5387 5.12998 31.965C5.18248 32.0775 5.23873 32.1862 5.29498 32.295L5.33248 32.355C5.38123 32.4637 5.43748 32.5762 5.45623 32.5987C5.48623 32.67 5.53123 32.7487 5.54998 32.7712C5.59498 32.865 5.63998 32.9475 5.72248 33.09L6.02998 33.6187C6.07498 33.69 6.11998 33.765 6.13498 33.7912C6.19498 33.8887 6.25873 33.99 6.32248 34.0912L6.47248 34.3312C6.51748 34.4025 6.56248 34.4662 6.59248 34.5037C6.74248 34.7362 6.89248 34.9687 7.05748 35.19C7.06498 35.2012 7.07248 35.2087 7.07998 35.2162L7.13998 35.2987C7.27498 35.4937 7.41373 35.6812 7.53748 35.835L8.08498 36.5287C8.09248 36.5362 8.15248 36.6075 8.15623 36.615L8.23498 36.705C8.39998 36.9075 8.57623 37.11 8.75248 37.305C8.77873 37.335 8.80498 37.3612 8.83123 37.3912C8.99998 37.575 9.17248 37.7587 9.35248 37.95L9.52498 38.115C9.66748 38.265 9.80998 38.4112 9.95998 38.55C9.95998 38.5537 10.0312 38.6212 10.0312 38.6212L10.1812 38.76C10.3612 38.9325 10.5487 39.105 10.6912 39.225C10.6987 39.2362 10.8337 39.3525 10.845 39.36C11.0212 39.5175 11.1975 39.6675 11.3775 39.8137L12.2962 40.5412C12.45 40.6537 12.6075 40.7662 12.7875 40.8975C12.8475 40.9425 12.9112 40.9875 12.975 41.0287C13.0012 41.0512 13.0312 41.0737 13.05 41.085L13.74 41.5462C13.9912 41.7112 14.2425 41.865 14.55 42.0487L14.715 42.1425C14.9062 42.255 15.1012 42.3675 15.285 42.465C15.3937 42.525 15.5025 42.5775 15.5962 42.6262C15.7275 42.6975 15.87 42.7762 16.0875 42.8812C16.1062 42.8925 16.26 42.9675 16.2787 42.975C16.4962 43.0837 16.7175 43.185 16.995 43.3087C16.995 43.3125 17.085 43.3537 17.085 43.3537C17.34 43.4625 17.5875 43.5675 17.9137 43.6987C17.9662 43.7212 18.0187 43.74 18.03 43.7437C18.2625 43.8337 18.5062 43.9237 18.705 43.995C18.7237 44.0025 18.825 44.0437 18.8437 44.0512C19.11 44.1412 19.3725 44.2275 19.71 44.3325C19.7662 44.3512 19.8262 44.37 19.8337 44.37L20.025 44.43C20.2575 44.5012 20.49 44.5762 20.7412 44.625C22.5262 44.9512 24.27 45.12 25.92 45.12H25.9237C39.675 45.12 44.055 34.0537 44.1 33.9412C44.2687 33.495 44.085 32.9925 43.665 32.76C43.2525 32.5312 42.7275 32.64 42.435 33.0187C38.9062 37.665 32.25 39.39 24.63 37.6387C24.4462 37.5937 24.2587 37.5412 24.075 37.485L23.715 37.3762C23.4712 37.3012 23.2275 37.2187 22.9912 37.1362C22.9875 37.1362 22.8787 37.095 22.8787 37.095C22.6687 37.0237 22.4587 36.9412 22.275 36.87L22.065 36.7875C21.8325 36.6937 21.6 36.5962 21.375 36.495L21.2437 36.4387C21.0412 36.345 20.8462 36.255 20.6512 36.1575C20.6362 36.15 20.4825 36.075 20.4675 36.0712C20.3325 36.0037 20.1975 35.9325 20.025 35.8387L19.2412 35.4187C19.1625 35.3662 19.08 35.3175 19.0012 35.2762C18.765 35.13 18.5212 34.9837 18.2812 34.83C18.225 34.7962 18.1762 34.7587 18.0825 34.695C17.9175 34.59 17.7562 34.4812 17.52 34.3162L17.4262 34.2487C17.265 34.1362 17.1075 34.0162 16.9762 33.9187C16.8937 33.8587 16.8112 33.7912 16.6762 33.69C16.5562 33.5962 16.4362 33.5062 16.3237 33.4162L16.1137 33.2437C15.9375 33.1012 15.7725 32.9512 15.6 32.805C15.5775 32.7825 15.5587 32.7675 15.5325 32.7487C15.3412 32.5725 15.1462 32.3962 14.9137 32.175L14.235 31.5C14.07 31.3312 13.905 31.1587 13.7175 30.9525C13.545 30.7612 13.38 30.57 13.1587 30.3075L12.7537 29.8125C12.705 29.7412 12.6525 29.67 12.5887 29.595C12.45 29.4075 12.3112 29.2237 12.1725 29.0287C8.43748 23.8837 7.46248 13.1437 10.3725 9.20999C10.665 8.81624 10.6125 8.26124 10.245 7.92749C10.065 7.76249 9.83248 7.67999 9.60373 7.67999Z" fill="#0868AB"/>
</svg>
