<svg width="48" height="48" viewBox="0 0 48 48" fill="none" xmlns="http://www.w3.org/2000/svg">
<path d="M24 6L17.99 12.35L11.97 18.69L6 25V6H24Z" fill="#0D91D6"/>
<path d="M24 6H23.96L17.97 12.33L11.96 18.68L6 24.97V25V25.09V42L14.69 33.31L20.87 27.13L27.06 20.94L33.25 14.75L42 6H24Z" fill="#F88909"/>
<path d="M14.69 33.31L6 42V25.09L14.69 33.31Z" fill="#C757BC"/>
<path d="M20.87 27.13L14.69 33.31L6 25.09V25L11.97 18.69L20.87 27.13Z" fill="#D3638F"/>
<path d="M27.06 20.94L20.87 27.13L11.97 18.69L17.99 12.35L27.06 20.94Z" fill="#E07063"/>
<path d="M33.25 14.75L27.06 20.94L17.99 12.35L24 6L33.25 14.75Z" fill="#EC7D36"/>
<path d="M42 6L33.25 14.75L24 6H42Z" fill="#F88909"/>
<path d="M11.51 19.15L7.99 22.88L6 21V13.94L11.51 19.15Z" fill="#0095D5"/>
<path d="M15.03 15.42L11.51 19.15L6 13.94V6.87L15.03 15.42Z" fill="#2B88DA"/>
<path d="M18.56 11.7L15.03 15.42L6 6.87V6H12.53L18.56 11.7Z" fill="#557BDE"/>
<path d="M22.08 7.97L18.56 11.7L12.53 6H24L22.08 7.97Z" fill="#806EE3"/>
<path d="M23 25L6 42H9.35H17.52H40L23 25Z" fill="#0095D5"/>
<path d="M25.68 42H17.52L11.76 36.25L15.84 32.17L25.68 42Z" fill="#2B88DA"/>
<path d="M33.86 42H25.68L15.84 32.17L19.92 28.09L33.86 42Z" fill="#557BDE"/>
<path d="M42 42H33.86L19.92 28.09L24 24L42 42Z" fill="#806EE3"/>
</svg>
