<svg width="48" height="48" viewBox="0 0 48 48" fill="none" xmlns="http://www.w3.org/2000/svg">
<g clip-path="url(#clip0_67_10310)">
<path d="M47.776 8.15601C47.646 8.04901 47.48 7.99301 47.311 8.00001C46.848 8.00001 46.249 8.31401 45.926 8.48301L45.798 8.54801C45.257 8.81001 44.668 8.95801 44.068 8.98301C43.453 9.00301 42.922 9.03901 42.232 9.11101C38.141 9.53201 36.316 12.667 34.558 15.7C33.601 17.35 32.612 19.063 31.257 20.372C30.977 20.644 30.679 20.897 30.365 21.13C28.963 22.172 27.202 22.917 25.832 23.444C24.513 23.948 23.073 24.401 21.682 24.84C20.407 25.241 19.204 25.621 18.098 26.031C17.599 26.216 17.175 26.358 16.8 26.483C15.792 26.81 15.065 27.061 14.003 27.792C13.589 28.075 13.173 28.381 12.892 28.61C12.049 29.283 11.303 30.069 10.675 30.945C10.135 31.754 9.511 32.503 8.813 33.18C8.589 33.399 8.191 33.507 7.595 33.507C6.899 33.509 4.984 33 3.699 33C1.987 33 0.208 33.627 0 34C0 34 2.911 35.894 3.014 35.996C2.903 36.16 1.196 38.499 1.012 39.007C3.506 39.07 4.968 38.701 6.368 38.024C6.774 37.828 7.186 37.626 7.677 37.419C8.495 37.064 9.376 36.498 10.31 35.899C11.532 35.102 12.811 34.284 14.051 33.889C15.07 33.578 16.132 33.429 17.198 33.447C18.507 33.447 19.885 33.622 21.214 33.792C22.204 33.92 23.994 33.94 25 34C25.269 34.016 26.84 34.034 27.946 34.027C26.758 36.642 25 39 25 39C25 39 31 39 33.548 33.219C33.582 33.152 33.611 33.083 33.644 33.016C35.224 32.639 39.274 30.503 40.35 24.611C40.854 22.899 41.224 21.199 41.55 19.702C41.939 17.902 42.275 16.359 42.659 15.76C43.263 14.821 44.184 14.186 45.076 13.569C45.197 13.486 45.32 13.405 45.439 13.317C46.56 12.53 47.674 11.622 47.92 9.92801V9.88901C48.098 8.62601 47.948 8.30301 47.776 8.15601Z" fill="#006064"/>
</g>
<defs>
<clipPath id="clip0_67_10310">
<rect width="48" height="48" fill="white"/>
</clipPath>
</defs>
</svg>
