<svg width="48" height="48" viewBox="0 0 48 48" fill="none" xmlns="http://www.w3.org/2000/svg">
<path d="M0.002 35.041H1.922V27.956L4.589 34.013C4.918 34.768 5.368 35.035 6.251 35.035C7.134 35.035 7.566 34.768 7.895 34.013L10.562 28.111V35.041H12.482V27.783C12.482 27.086 12.205 26.748 11.633 26.574C10.266 26.144 9.348 26.515 8.933 27.446L6.198 33.606L3.549 27.446C3.151 26.516 2.217 26.144 0.849 26.574C0.277 26.748 0 27.085 0 27.782V35.04L0.002 35.041ZM13.441 29.281H15.361V33.336C15.346 33.536 15.425 34.067 16.351 34.081C16.823 34.089 19.172 34.081 19.201 34.081V29.281H21.121C21.129 29.281 21.121 35.249 21.121 35.274C21.131 36.746 19.293 36.936 18.448 36.961H13.442V36.001C13.452 36.001 18.229 36.002 18.243 36.001C19.331 35.886 19.202 35.287 19.202 35.105V35.041H16.19C14.52 35.026 13.455 34.29 13.443 33.451C13.441 33.373 13.479 29.317 13.441 29.281Z" fill="url(#paint0_linear_2_1287)"/>
<path d="M22.081 35.041H26.888C27.518 35.041 28.13 34.909 28.616 34.681C29.426 34.309 29.76 33.806 29.76 33.145V31.777C29.76 30.301 27.93 30.241 26.88 30.241H24.96C24.205 30.241 24.09 29.785 24 29.281V28.321C24.09 27.937 24.258 27.421 24.923 27.361C25.696 27.361 29.759 27.361 29.759 27.361V26.401H25.193C24.438 26.401 22.079 26.491 22.079 28.321V29.508C22.079 30.348 22.817 31.032 24.419 31.2C24.599 31.212 24.779 31.224 24.958 31.224C24.958 31.224 26.824 31.188 26.878 31.2C27.958 31.2 27.838 32.04 27.838 32.16V33.12C27.838 33.252 27.808 34.08 26.867 34.08C26.795 34.08 22.078 34.08 22.078 34.08V35.041H22.081ZM40.32 33.08C40.32 34.239 40.975 34.889 42.712 35.019C42.874 35.03 43.037 35.04 43.2 35.04H48V34.08H43.565C42.574 34.08 42.24 33.664 42.24 33.069V26.4H40.32V33.08ZM30.704 33.121V28.321C30.704 27.301 31.204 26.597 32.62 26.401H33.292H36.739H37.264C38.68 26.597 39.344 27.3 39.344 28.321V33.103C39.344 33.93 39.129 34.374 38.428 34.662L39.916 36H37.756L36.686 35.04H35.429L33.293 35.052C32.984 35.052 32.658 35.009 32.3 34.911C31.226 34.618 30.704 34.054 30.704 33.121ZM32.624 33.121C32.722 33.588 33.097 34.081 33.764 34.081H35.628L34.56 33.121H36.735L37.254 33.603C37.254 33.603 37.44 33.451 37.44 33.121C37.44 32.791 37.424 28.321 37.424 28.321C37.326 27.887 36.886 27.361 36.236 27.361H33.765C33.016 27.361 32.625 27.909 32.625 28.419L32.624 33.121Z" fill="url(#paint1_linear_2_1287)"/>
<path d="M46.199 25.389C45.168 25.361 44.381 25.457 43.708 25.74C43.517 25.821 43.212 25.823 43.18 26.063C43.285 26.173 43.301 26.338 43.385 26.473C43.545 26.733 43.817 27.082 44.059 27.264C44.324 27.464 44.597 27.678 44.88 27.851C45.384 28.158 45.947 28.334 46.433 28.642C46.719 28.823 47.003 29.053 47.283 29.257C47.421 29.359 47.513 29.516 47.693 29.58C47.693 29.57 47.693 29.561 47.693 29.551C47.599 29.431 47.574 29.266 47.488 29.14C47.361 29.013 47.234 28.886 47.107 28.759C46.735 28.265 46.261 27.83 45.759 27.47C45.358 27.182 44.461 26.793 44.293 26.327C44.283 26.317 44.274 26.308 44.263 26.297C44.547 26.265 44.88 26.162 45.142 26.092C45.583 25.974 45.976 26.005 46.431 25.887C46.636 25.828 46.841 25.77 47.046 25.711C47.046 25.672 47.046 25.633 47.046 25.594C46.816 25.358 46.651 25.046 46.401 24.832C45.744 24.273 45.028 23.715 44.291 23.249C43.882 22.991 43.376 22.823 42.943 22.604C42.797 22.53 42.541 22.492 42.445 22.37C42.217 22.08 42.094 21.711 41.918 21.374C41.55 20.666 41.188 19.892 40.863 19.147C40.64 18.639 40.495 18.137 40.218 17.681C38.887 15.493 37.454 14.172 35.236 12.874C34.764 12.598 34.195 12.489 33.594 12.346C33.271 12.327 32.949 12.307 32.626 12.287C32.429 12.204 32.225 11.964 32.039 11.847C31.304 11.382 29.418 10.372 28.874 11.7C28.53 12.538 29.388 13.356 29.695 13.781C29.91 14.079 30.186 14.413 30.34 14.749C30.441 14.969 30.459 15.19 30.545 15.423C30.758 15.997 31.095 16.651 31.371 17.182C31.51 17.451 31.664 17.733 31.84 17.973C31.948 18.12 32.133 18.185 32.163 18.413C31.982 18.666 31.972 19.059 31.87 19.381C31.412 20.826 31.585 22.621 32.251 23.689C32.455 24.017 32.937 24.721 33.599 24.451C34.178 24.215 34.049 23.484 34.214 22.839C34.251 22.693 34.228 22.586 34.302 22.488C34.302 22.498 34.302 22.507 34.302 22.518C34.478 22.869 34.653 23.222 34.83 23.573C35.221 24.202 35.914 24.859 36.5 25.303C36.804 25.533 37.044 25.931 37.438 26.065C37.438 26.055 37.438 26.046 37.438 26.035C37.428 26.035 37.419 26.035 37.408 26.035C37.332 25.916 37.212 25.867 37.115 25.771C36.886 25.546 36.63 25.267 36.441 25.009C35.907 24.284 35.435 23.49 35.005 22.664C34.8 22.269 34.621 21.835 34.448 21.433C34.381 21.278 34.382 21.044 34.243 20.964C34.053 21.258 33.775 21.496 33.628 21.843C33.394 22.398 33.363 23.076 33.277 23.777C33.225 23.795 33.248 23.783 33.218 23.806C32.81 23.707 32.666 23.288 32.514 22.927C32.13 22.015 32.059 20.547 32.397 19.498C32.484 19.226 32.879 18.371 32.72 18.12C32.644 17.869 32.392 17.724 32.252 17.533C32.077 17.297 31.904 16.985 31.783 16.712C31.469 16.001 31.171 15.174 30.84 14.455C30.682 14.111 30.415 13.764 30.195 13.459C29.952 13.121 29.679 12.872 29.491 12.463C29.424 12.318 29.333 12.085 29.432 11.935C29.464 11.834 29.508 11.792 29.608 11.759C29.778 11.627 30.251 11.802 30.429 11.876C30.899 12.071 31.291 12.257 31.689 12.521C31.88 12.648 32.073 12.893 32.304 12.961C32.392 12.961 32.48 12.961 32.568 12.961C32.981 13.056 33.443 12.991 33.828 13.108C34.51 13.315 35.12 13.637 35.674 13.987C37.364 15.054 38.745 16.572 39.69 18.384C39.842 18.676 39.908 18.954 40.041 19.263C40.311 19.887 40.652 20.529 40.92 21.139C41.188 21.748 41.45 22.362 41.829 22.869C42.029 23.135 42.799 23.278 43.148 23.426C43.393 23.53 43.795 23.637 44.027 23.777C44.471 24.045 44.901 24.364 45.316 24.656C45.528 24.803 46.167 25.124 46.199 25.389Z" fill="url(#paint2_linear_2_1287)"/>
<path d="M33.098 14.223C32.883 14.219 32.731 14.246 32.57 14.282C32.57 14.292 32.57 14.301 32.57 14.312C32.58 14.312 32.589 14.312 32.6 14.312C32.703 14.522 32.883 14.659 33.01 14.84C33.108 15.045 33.205 15.25 33.303 15.455C33.313 15.445 33.322 15.436 33.332 15.426C33.513 15.298 33.597 15.094 33.596 14.781C33.523 14.704 33.512 14.608 33.449 14.517C33.365 14.394 33.203 14.325 33.098 14.223Z" fill="#00796B"/>
<defs>
<linearGradient id="paint0_linear_2_1287" x1="9.8" y1="25.236" x2="11.081" y2="36.899" gradientUnits="userSpaceOnUse">
<stop stop-color="#058F92"/>
<stop offset="0.5" stop-color="#038489"/>
<stop offset="1" stop-color="#026D71"/>
</linearGradient>
<linearGradient id="paint1_linear_2_1287" x1="34.224" y1="25.644" x2="35.101" y2="35.217" gradientUnits="userSpaceOnUse">
<stop stop-color="#FF9C0F"/>
<stop offset="0.813" stop-color="#D67E00"/>
</linearGradient>
<linearGradient id="paint2_linear_2_1287" x1="35.029" y1="11.716" x2="40.355" y2="26.75" gradientUnits="userSpaceOnUse">
<stop stop-color="#058F92"/>
<stop offset="0.5" stop-color="#038489"/>
<stop offset="1" stop-color="#026D71"/>
</linearGradient>
</defs>
</svg>
