<svg width="48" height="48" viewBox="0 0 48 48" fill="none" xmlns="http://www.w3.org/2000/svg">
<g clip-path="url(#clip0_67_10135)">
<path d="M14.262 39.569C13.809 38.777 13.781 37.829 14.128 37H4.762L19.081 12.669L23.734 20.576L26.055 16.633L21.697 9.22899C21.146 8.29199 20.169 7.73299 19.082 7.73199C19.082 7.73199 19.082 7.73199 19.081 7.73199C17.995 7.73199 17.017 8.29099 16.465 9.22799L0.458002 36.425C-0.092998 37.361 -0.100998 38.528 0.438002 39.471C0.977002 40.414 1.988 41 3.074 41H16.512C15.58 40.908 14.732 40.392 14.262 39.569Z" fill="#1DE9B6"/>
<path d="M47.65 36.641L33.478 12.562C32.948 11.662 32.009 11.125 30.965 11.125C29.921 11.125 28.981 11.662 28.451 12.562L26.055 16.633L28.376 20.576L30.965 16.178L43 37H38C38.258 37.802 38.151 38.724 37.724 39.471C37.185 40.414 36.086 41 35 41C34.999 40.987 35.001 41.013 35 41H45C46.043 41 47.149 40.475 47.667 39.569C48.186 38.664 48.179 37.542 47.65 36.641Z" fill="#00BFA5"/>
<path d="M38 37C37.932 36.79 37.818 36.619 37.704 36.425L28.376 20.576L26.055 16.633L23.734 20.576L14.279 36.641C14.212 36.754 14.178 36.88 14.128 37C13.781 37.829 13.808 38.778 14.262 39.569C14.732 40.391 15.58 40.907 16.512 41H35.088C36.174 41 37.184 40.414 37.723 39.471C38.151 38.724 38.258 37.802 38 37ZM26.055 24.519L33.401 37H18.71L26.055 24.519Z" fill="#00838F"/>
</g>
<defs>
<clipPath id="clip0_67_10135">
<rect width="48" height="48" fill="white"/>
</clipPath>
</defs>
</svg>
