<svg width="48" height="48" viewBox="0 0 48 48" fill="none" xmlns="http://www.w3.org/2000/svg">
<g clip-path="url(#clip0_2_1303)">
<path d="M24 11.52C10.543 11.52 0 17.2309 0 24.52C0 31.8091 10.543 37.52 24 37.52C37.457 37.52 48 31.8091 48 24.52C48 17.2309 37.457 11.52 24 11.52ZM21.5078 15.52H24.1289L23.2969 19.52H25.6367C27.1211 19.52 28.1172 19.727 28.6836 20.2466C29.2383 20.7583 29.4062 21.5981 29.1836 22.7426L28.1445 27.52H25.4805L26.4375 23.102C26.5547 22.4966 26.5078 22.0747 26.3047 21.852C26.1016 21.6294 25.6562 21.52 24.9883 21.52H22.8906L21.625 27.52H19L21.5078 15.52ZM10 19.52H15.332C17.875 19.52 19.4141 21.2231 18.8125 23.7661C18.1133 26.7192 16.2383 27.52 12.793 27.52H11.1445L10.6211 30.52H7.97266L10 19.52ZM31 19.52H36.332C38.875 19.52 40.4141 21.2231 39.8125 23.7661C39.1133 26.7192 37.2383 27.52 33.793 27.52H32.1445L31.6211 30.52H28.9727L31 19.52ZM12.2695 21.52L11.5156 25.52H13.2266C14.707 25.52 16.082 25.352 16.3125 23.145C16.3984 22.2895 16.043 21.52 14.332 21.52H12.2695ZM33.2695 21.52L32.5156 25.52H34.2266C35.707 25.52 37.082 25.352 37.3125 23.145C37.3984 22.2895 37.043 21.52 35.332 21.52H33.2695Z" fill="#4F5B93"/>
</g>
<defs>
<clipPath id="clip0_2_1303">
<rect width="48" height="48" fill="white"/>
</clipPath>
</defs>
</svg>
