<svg width="48" height="48" viewBox="0 0 48 48" fill="none" xmlns="http://www.w3.org/2000/svg">
<path d="M22 2.1547C23.2376 1.44017 24.7624 1.44017 26 2.1547L41.9186 11.3453C43.1562 12.0598 43.9186 13.3803 43.9186 14.8094V33.1906C43.9186 34.6197 43.1562 35.9402 41.9186 36.6547L26 45.8453C24.7624 46.5598 23.2376 46.5598 22 45.8453L6.08142 36.6547C4.84382 35.9402 4.08142 34.6197 4.08142 33.1906V14.8094C4.08142 13.3803 4.84382 12.0598 6.08142 11.3453L22 2.1547Z" fill="#20232A"/>
<path d="M24 30.6667C15.4 30.6667 8.66666 27.7333 8.66666 24C8.66666 20.2667 15.4 17.3333 24 17.3333C32.6 17.3333 39.3333 20.2667 39.3333 24C39.3333 27.7333 32.6 30.6667 24 30.6667ZM24 18.6667C15.6 18.6667 9.99999 21.4 9.99999 24C9.99999 26.6 15.6 29.3333 24 29.3333C32.4 29.3333 38 26.6 38 24C38 21.4 32.4 18.6667 24 18.6667Z" fill="#00D8FF"/>
<path d="M18.0667 37.7333C17.4 37.7333 16.8667 37.6 16.3333 37.2667C13.0667 35.4 13.9333 28.1333 18.2 20.6667C20.2 17.2 22.6667 14.2667 25.0667 12.4C27.6667 10.4 30 9.79999 31.6 10.7333C33.2667 11.6667 33.8667 14 33.4667 17.2667C33.0667 20.3333 31.7333 23.9333 29.7333 27.4C27.7333 30.8667 25.2667 33.8 22.8667 35.6667C21.1333 37 19.4667 37.7333 18.0667 37.7333ZM29.9333 11.6C28.8667 11.6 27.4667 12.2 25.9333 13.4C23.6667 15.2 21.3333 18 19.4 21.3333C15.2 28.6 14.8 34.8667 17 36.1333C18.1333 36.8 20 36.2 22.0667 34.6C24.3333 32.8 26.6667 30 28.6 26.6667C30.5333 23.3333 31.8 19.9333 32.2 17.0667C32.5333 14.4 32.1333 12.5333 31 11.8667C30.6667 11.7333 30.3333 11.6 29.9333 11.6Z" fill="#00D8FF"/>
<path d="M30 37.7333C26.6667 37.7333 21.8667 33.6666 18.2667 27.3333C13.9333 19.8666 13.0667 12.6 16.3333 10.7333C19.6 8.86665 25.4667 13.2 29.8 20.6666C31.8 24.1333 33.1333 27.7333 33.5333 30.8C34 34.0666 33.3333 36.3333 31.6667 37.3333C31.1333 37.6 30.6 37.7333 30 37.7333ZM17 11.8667C14.8 13.1333 15.2 19.4 19.4 26.6666C23.6 33.9333 28.8 37.4 31 36.1333C32.1333 35.4666 32.5333 33.6 32.2 30.9333C31.8 28.0666 30.5333 24.6666 28.6 21.3333C24.4 14.0667 19.2 10.6 17 11.8667Z" fill="#00D8FF"/>
<path d="M24 26.6667C25.4727 26.6667 26.6667 25.4727 26.6667 24C26.6667 22.5272 25.4727 21.3333 24 21.3333C22.5272 21.3333 21.3333 22.5272 21.3333 24C21.3333 25.4727 22.5272 26.6667 24 26.6667Z" fill="#00D8FF"/>
</svg>
