<svg width="48" height="48" viewBox="0 0 48 48" fill="none" xmlns="http://www.w3.org/2000/svg">
<path d="M15.0469 14.3613C14.6704 14.3613 14.2843 14.3836 13.8838 14.4316L14.1123 15.1494C14.4648 15.1119 14.8145 15.0996 15.167 15.0996H15.29L15.0469 14.3613ZM19.6758 15.0762L19.6289 15.876C20.0294 16.011 20.4167 16.1579 20.8037 16.3154L20.8535 15.501C20.744 15.441 20.4393 15.2952 19.6758 15.0762ZM9.7002 15.5361C9.39719 15.6936 9.08091 15.8626 8.75391 16.0576L9.31055 16.9072C9.62555 16.7122 9.93012 16.5315 10.2451 16.374L9.7002 15.5361ZM15.2021 15.5742C14.8621 15.5767 14.5179 15.5952 14.1738 15.6299C10.6338 15.9449 6.285 19.1694 3.75 23.3994C1.2 27.6444 0.855469 31.2451 0.855469 31.2451H10.4238C10.4238 31.2451 8.5943 22.89 14.6543 19.5C15.9143 18.885 19.8314 16.6638 26.1914 20.9238L26.6689 20.4902C24.8689 18.9434 20.3022 15.5366 15.2021 15.5742ZM19.6523 18.8848L19.6055 19.6465C20.006 19.6585 20.4032 19.7075 20.8037 19.793L20.8535 19.04C20.4425 18.956 20.0408 18.9088 19.6523 18.8848ZM16.8164 19.1748C16.4039 19.2948 16.053 19.431 15.75 19.5645L16.0283 20.3994C16.3793 20.2299 16.732 20.0841 17.083 19.9746L16.8164 19.1748ZM4.80176 19.2246C4.48676 19.5276 4.18427 19.8298 3.90527 20.1328L4.83691 20.9326C5.09191 20.6056 5.37209 20.2776 5.66309 19.9746L4.80176 19.2246ZM13.4824 21.0176C13.2034 21.2741 12.947 21.5501 12.7295 21.8291L13.3125 22.7021C13.518 22.3991 13.7603 22.1198 14.0273 21.8408L13.4824 21.0176ZM15.2256 22.7461V31.0898H17.2559V28.7842L17.5137 29.0508L19.418 31.0898H22.5L19.8252 28.3916L20.1445 28.3623C20.224 28.3548 22.1309 28.1528 22.1309 25.5908C22.1309 23.0243 19.7935 22.7551 19.708 22.7461H15.2256ZM25.6641 22.8047C24.0891 22.8047 23.5576 24.2526 23.5576 24.9111V31.0898H25.623V29.5752H28.1426V31.0898H30.1318V24.9111C30.1318 23.1936 28.5743 22.8047 28.0283 22.8047H25.6641ZM31.5117 22.8047V31.0869H33.6738V22.8047H31.5117ZM34.9775 22.8047V31.0898H40.4414V29.1709H37.1309V22.8047H34.9775ZM43.5469 22.8047C42.6589 22.8047 41.4287 23.5483 41.4287 24.9463V25.7109C41.4287 27.1479 42.6934 27.8174 43.5469 27.8174L44.6221 27.8203C44.7916 27.8158 45.5654 27.8174 45.5654 27.8174V29.1826L41.5488 29.1943V31.0869H45.3662C46.1552 31.0869 47.4247 30.5149 47.4697 28.9834V28.1338C47.4697 26.8168 46.3997 26.0303 45.3662 26.0303H43.2393V24.7119H47.1562V22.8047H43.5469ZM11.3379 24.3984C11.1789 24.8484 11.0692 25.2979 10.9717 25.7344L11.9561 26.5107C12.0041 26.0382 12.0894 25.5638 12.2109 25.0898L11.3379 24.3984ZM26.502 24.5537H27.3105C27.9435 24.5537 28.1249 24.9558 28.1309 25.1748V27.4248H25.6113V25.1748C25.6113 25.1688 25.623 24.5537 26.502 24.5537ZM17.2588 24.6123L19.3271 24.6211C19.3511 24.6316 19.9453 24.8641 19.9453 25.7461C19.9453 26.6266 19.3437 26.8706 19.2627 26.8916H17.2588V24.6123ZM0.606445 24.8877C0.376945 25.4082 0.1215 26.0138 0 26.3408L1.39453 26.8506C1.55203 26.4381 1.80598 25.843 2.00098 25.3945L0.606445 24.8877ZM10.79 28.8135C10.814 29.4555 10.8765 29.9768 10.9365 30.3398L12.3926 30.8613C12.2831 30.3888 12.1731 29.8552 12.0996 29.2852L10.79 28.8135Z" fill="#CC0000"/>
</svg>
