<svg width="48" height="48" viewBox="0 0 48 48" fill="none" xmlns="http://www.w3.org/2000/svg">
<g clip-path="url(#clip0_67_10336)">
<path d="M75.9192 -93.0108L59.2632 -121.859C56.9112 -125.927 52.5312 -128.459 47.8272 -128.459H14.5152C9.81121 -128.459 5.43121 -125.927 3.07921 -121.859L-13.5768 -93.0108C-15.9288 -88.9428 -15.9288 -83.8788 -13.5768 -79.8108L3.07921 -50.9628C5.43121 -46.8828 9.81121 -44.3628 14.5152 -44.3628H47.8272C52.5312 -44.3628 56.9112 -46.8828 59.2632 -50.9628L75.9192 -79.8108C78.2712 -83.8788 78.2712 -88.9428 75.9192 -93.0108ZM49.0272 -69.9108C44.7312 -65.1468 38.8392 -62.3388 32.4312 -62.0028C31.9992 -61.9788 31.5792 -61.9668 31.1472 -61.9668C25.2072 -61.9668 19.5552 -64.1268 15.1032 -68.1348C5.26321 -76.9908 4.45921 -92.2068 13.3272 -102.059C14.0112 -102.815 14.7432 -103.535 15.5232 -104.195C17.0232 -105.491 19.2912 -105.323 20.5992 -103.811C21.8952 -102.311 21.7152 -100.031 20.2032 -98.7348C19.6752 -98.2788 19.1592 -97.7748 18.6792 -97.2348C12.4752 -90.3468 13.0272 -79.6908 19.9272 -73.4868C23.2632 -70.4748 27.5592 -68.9508 32.0592 -69.1908C36.5472 -69.4308 40.6752 -71.3988 43.6752 -74.7348C49.8792 -81.6228 49.3152 -92.2788 42.4272 -98.4828C40.9512 -99.8148 40.8312 -102.095 42.1632 -103.571C43.4952 -105.047 45.7632 -105.167 47.2512 -103.835C57.0912 -94.9788 57.8832 -79.7628 49.0272 -69.9108ZM27.5712 -87.6468V-107.999C27.5712 -109.991 29.1912 -111.599 31.1712 -111.599C33.1632 -111.599 34.7712 -109.991 34.7712 -107.999V-87.6468C34.7712 -85.6668 33.1632 -84.0468 31.1712 -84.0468C30.1872 -84.0468 29.2752 -84.4548 28.6272 -85.1028C27.9792 -85.7508 27.5712 -86.6628 27.5712 -87.6468ZM45.7152 20.0412L38.2752 7.44119C37.6032 6.30119 36.6552 5.36519 35.5512 4.71719L35.3592 4.3812H34.9512C33.9072 3.8772 32.7432 3.6012 31.5552 3.6012H16.3992C15.1992 3.6012 14.0472 3.8772 13.0032 4.3812H12.4752L12.2112 4.8252C11.1912 5.47321 10.3152 6.36119 9.67921 7.44119L2.23921 20.0412C1.55521 21.2052 1.19521 22.4892 1.15921 23.7852L1.03921 24.0012L1.15921 24.2172C1.19521 25.5132 1.55521 26.7972 2.23921 27.9612L9.67921 40.5612C10.3152 41.6412 11.1912 42.5292 12.2232 43.1772L12.4752 43.6092H12.9792C14.0352 44.1252 15.1872 44.4012 16.3992 44.4012H31.5552C32.7552 44.4012 33.9192 44.1252 34.9752 43.6092H35.3592L35.5392 43.2972C36.6552 42.6372 37.6032 41.7132 38.2752 40.5612L45.7152 27.9612C46.4352 26.7372 46.7952 25.3692 46.7952 24.0012C46.7952 22.6332 46.4352 21.2652 45.7152 20.0412ZM18.7872 30.0852C21.9792 32.9652 26.9232 32.7012 29.7912 29.5092C32.6712 26.3172 32.4072 21.3732 29.2152 18.5052C28.4712 17.8332 28.4112 16.6932 29.0832 15.9612C29.7432 15.2172 30.8832 15.1572 31.6272 15.8292C36.2952 20.0292 36.6672 27.2532 32.4672 31.9212C30.2232 34.4172 27.1152 35.6892 23.9952 35.6892C21.2712 35.6892 18.5472 34.7172 16.3752 32.7612C11.7072 28.5612 11.3232 21.3372 15.5352 16.6692C15.8592 16.3092 16.2072 15.9612 16.5672 15.6492C17.3232 15.0012 18.4632 15.0972 19.1112 15.8412C19.7592 16.5972 19.6752 17.7372 18.9192 18.3852C18.6672 18.6012 18.4272 18.8292 18.1992 19.0812C15.3312 22.2732 15.5952 27.2172 18.7872 30.0852ZM22.1952 22.2012V13.8012C22.1952 12.8052 23.0112 12.0012 23.9952 12.0012C24.9912 12.0012 25.7952 12.8052 25.7952 13.8012V22.2012C25.7952 23.1972 24.9912 24.0012 23.9952 24.0012C23.0112 24.0012 22.1952 23.1972 22.1952 22.2012ZM39.7512 102.553C39.6672 101.629 39.3912 100.729 38.9112 99.9012L33.7152 90.9012C33.2352 90.0612 32.5872 89.3652 31.8192 88.8252L31.4592 88.2012H30.7392C29.8872 87.8052 28.9632 87.6012 28.0032 87.6012H17.6112C16.6512 87.6012 15.7272 87.8052 14.8752 88.2012H14.1552L13.7952 88.8252C13.0272 89.3652 12.3792 90.0612 11.8992 90.9012L6.70321 99.9012C6.22321 100.729 5.94721 101.629 5.86321 102.553L5.50321 103.177L5.85121 103.789C5.93521 104.725 6.21121 105.661 6.70321 106.501L11.8992 115.501C12.3912 116.353 13.0632 117.073 13.8432 117.613L14.1552 118.153H14.7672C15.6432 118.573 16.6152 118.801 17.6112 118.801H28.0032C28.9992 118.801 29.9712 118.573 30.8472 118.153H31.4592L31.7712 117.613C32.5512 117.073 33.2232 116.353 33.7152 115.501L38.9112 106.501C39.4032 105.661 39.6792 104.725 39.7632 103.789L40.1112 103.177L39.7512 102.553ZM19.2432 107.413C21.4272 109.369 24.7992 109.201 26.7552 107.017C28.7232 104.833 28.5432 101.473 26.3592 99.5052C25.8072 99.0012 25.7712 98.1492 26.2632 97.5972C26.7672 97.0452 27.6192 96.9972 28.1712 97.5012C31.4592 100.453 31.7232 105.541 28.7712 108.829C27.3312 110.413 25.3632 111.361 23.2272 111.469C23.0832 111.481 22.9392 111.481 22.7952 111.481C20.8152 111.481 18.9192 110.761 17.4432 109.417C15.8472 107.989 14.9112 106.021 14.7912 103.885C14.6832 101.737 15.4152 99.6852 16.8432 98.0892C17.0712 97.8372 17.3112 97.5972 17.5752 97.3812C18.1392 96.8892 18.9912 96.9612 19.4832 97.5252C19.9632 98.0892 19.9032 98.9412 19.3392 99.4212C19.1592 99.5772 19.0032 99.7332 18.8472 99.9012C17.8992 100.957 17.4192 102.313 17.4912 103.741C17.5632 105.157 18.1872 106.465 19.2432 107.413ZM21.4512 103.021V96.1452C21.4512 95.4012 22.0632 94.8012 22.8072 94.8012C23.5512 94.8012 24.1512 95.4012 24.1512 96.1452V103.021C24.1512 103.765 23.5512 104.377 22.8072 104.377C22.0632 104.377 21.4512 103.765 21.4512 103.021ZM30.7632 155.557C30.7032 154.969 30.5112 154.393 30.1992 153.865L27.7392 149.677C27.4272 149.161 27.0192 148.717 26.5272 148.381L26.3112 148.021H25.9032C25.3512 147.745 24.7392 147.601 24.1152 147.601H19.0512C18.4272 147.601 17.8152 147.745 17.2632 148.021H16.9512L16.7952 148.285C16.2432 148.621 15.7752 149.101 15.4392 149.677L12.9672 153.865C12.6192 154.453 12.4272 155.089 12.3912 155.749L12.2592 155.977L12.3912 156.205C12.4152 156.877 12.6072 157.537 12.9672 158.137L15.4392 162.325C15.7872 162.913 16.2672 163.405 16.8432 163.753L16.9512 163.933H17.1672C17.7432 164.245 18.3912 164.401 19.0512 164.401H24.1152C24.7872 164.401 25.4352 164.233 26.0112 163.933H26.3112L26.4792 163.657C26.9832 163.321 27.4152 162.865 27.7392 162.325L30.1992 158.137C30.5232 157.597 30.7152 156.997 30.7632 156.385L31.0032 155.977L30.7632 155.557ZM19.6392 158.269C20.2152 158.797 20.9352 159.061 21.7272 159.013C22.4952 158.977 23.2152 158.629 23.7312 158.053C24.2472 157.489 24.5112 156.745 24.4752 155.965C24.4272 155.197 24.0912 154.489 23.5152 153.961C23.2152 153.697 23.1912 153.241 23.4672 152.953C23.7312 152.653 24.1872 152.629 24.4752 152.893C25.3392 153.673 25.8432 154.729 25.9032 155.893C25.9752 157.045 25.5792 158.161 24.7992 159.025C24.0312 159.889 22.9632 160.393 21.7992 160.453H21.5712C20.5032 160.453 19.4712 160.069 18.6792 159.349C17.8152 158.569 17.2992 157.501 17.2392 156.349C17.1792 155.185 17.5752 154.081 18.3552 153.217C18.4752 153.085 18.6072 152.953 18.7392 152.833C19.0392 152.569 19.4952 152.605 19.7592 152.905C20.0232 153.205 19.9872 153.661 19.6872 153.913C19.5912 153.997 19.5072 154.081 19.4232 154.177C18.9072 154.753 18.6432 155.497 18.6792 156.265C18.7272 157.045 19.0632 157.753 19.6392 158.269ZM20.8512 156.001V152.461C20.8512 152.065 21.1752 151.741 21.5712 151.741C21.9792 151.741 22.2912 152.065 22.2912 152.461V156.001C22.2912 156.397 21.9792 156.721 21.5712 156.721C21.1752 156.721 20.8512 156.397 20.8512 156.001Z" fill="white"/>
<path d="M35.5512 4.7172L35.3592 4.3812H12.4752L12.2112 4.82519L1.15918 23.7852L1.03918 24.0012L1.15918 24.2172L12.2232 43.1772L12.4752 43.6092H35.3592L35.5392 43.2972L46.7952 24.0012L35.5512 4.7172ZM32.4672 31.9212C30.2232 34.4172 27.1152 35.6892 23.9952 35.6892C21.2712 35.6892 18.5472 34.7172 16.3752 32.7612C11.7072 28.5612 11.3232 21.3372 15.5352 16.6692C15.8592 16.3092 16.2072 15.9612 16.5672 15.6492C17.3232 15.0012 18.4632 15.0972 19.1112 15.8412C19.7592 16.5972 19.6752 17.7372 18.9192 18.3852C18.6672 18.6012 18.4272 18.8292 18.1992 19.0812C15.3312 22.2732 15.5952 27.2172 18.7872 30.0852C21.9792 32.9652 26.9232 32.7012 29.7912 29.5092C32.6712 26.3172 32.4072 21.3732 29.2152 18.5052C28.4712 17.8332 28.4112 16.6932 29.0832 15.9612C29.7432 15.2172 30.8832 15.1572 31.6272 15.8292C36.2952 20.0292 36.6672 27.2532 32.4672 31.9212ZM25.7952 13.8012V22.2012C25.7952 23.1972 24.9912 24.0012 23.9952 24.0012C23.0112 24.0012 22.1952 23.1972 22.1952 22.2012V13.8012C22.1952 12.8052 23.0112 12.0012 23.9952 12.0012C24.9912 12.0012 25.7952 12.8052 25.7952 13.8012Z" fill="#BAE0BD"/>
<path d="M45.7152 20.0412L38.2752 7.4412C37.6032 6.3012 36.6552 5.3652 35.5512 4.7172C35.3592 4.5852 35.1552 4.4772 34.9512 4.3812C33.9072 3.8772 32.7432 3.6012 31.5552 3.6012H16.3992C15.1992 3.6012 14.0472 3.8772 13.0032 4.3812C12.7272 4.5132 12.4632 4.6572 12.2112 4.8252C11.1912 5.4732 10.3152 6.3612 9.67918 7.4412L2.23918 20.0412C1.55518 21.2052 1.19518 22.4892 1.15918 23.7852V24.2172C1.19518 25.5132 1.55518 26.7972 2.23918 27.9612L9.67918 40.5612C10.3152 41.6412 11.1912 42.5292 12.2232 43.1772C12.4632 43.3452 12.7152 43.4772 12.9792 43.6092C14.0352 44.1252 15.1872 44.4012 16.3992 44.4012H31.5552C32.7552 44.4012 33.9192 44.1252 34.9752 43.6092C35.1672 43.5132 35.3592 43.4172 35.5392 43.2972C36.6552 42.6372 37.6032 41.7132 38.2752 40.5612L45.7152 27.9612C46.4352 26.7372 46.7952 25.3692 46.7952 24.0012C46.7952 22.6332 46.4352 21.2652 45.7152 20.0412ZM31.5552 43.2012H16.3992C14.0712 43.2012 11.8992 41.9532 10.7112 39.9612L3.27118 27.3612C2.04718 25.2852 2.04718 22.7172 3.27118 20.6412L10.7112 8.0412C11.8992 6.0492 14.0712 4.8012 16.3992 4.8012H31.5552C33.8832 4.8012 36.0552 6.0492 37.2432 8.0412L44.6832 20.6412C45.8952 22.7172 45.8952 25.2852 44.6832 27.3612L37.2432 39.9612C36.0552 41.9532 33.8832 43.2012 31.5552 43.2012Z" fill="#5E9C76"/>
</g>
<defs>
<clipPath id="clip0_67_10336">
<rect width="48" height="48" fill="white"/>
</clipPath>
</defs>
</svg>
