<svg width="48" height="48" viewBox="0 0 48 48" fill="none" xmlns="http://www.w3.org/2000/svg">
<path d="M43.982 23.635C44.051 19.374 43.091 14.307 41.091 8.36201L39.523 3.70001L37.393 8.13301C37.279 8.37001 37.149 8.60201 37.013 8.83101C33.514 5.82701 28.974 4.00001 24 4.00001C12.954 4.00001 4 12.954 4 24C4 35.046 12.954 44 24 44C35.046 44 44 35.046 44 24C44 23.877 43.984 23.758 43.982 23.635Z" fill="#8BC34A"/>
<path d="M39.385 32.558C36.262 36.86 30.734 37.091 25.531 37H18.75H16.812C21.24 35.407 23.875 35.028 26.566 33.6C31.634 30.935 36.644 25.104 37.687 19.038C35.757 24.874 29.908 29.888 24.578 31.927C20.926 33.32 14.33 34.672 14.33 34.672L14.063 34.527C9.57301 32.268 9.43701 22.214 17.6 18.968C21.174 17.545 24.593 18.327 28.454 17.375C32.576 16.363 37.344 13.167 39.284 9C41.456 15.667 44.07 26.106 39.385 32.558ZM15.668 38.445C15.386 38.795 14.955 39 14.505 39C13.682 39 13.01 38.323 13.01 37.5C13.01 36.677 13.687 36 14.505 36C14.846 36 15.182 36.118 15.446 36.336C16.086 36.855 16.186 37.805 15.668 38.445Z" fill="white"/>
</svg>
