<svg width="48" height="48" viewBox="0 0 48 48" fill="none" xmlns="http://www.w3.org/2000/svg">
<path d="M6 10C6 7.791 7.791 6 10 6H38C40.209 6 42 7.791 42 10V38C42 40.208 40.209 42 38 42H10C7.791 42 6 40.208 6 38V10Z" fill="#FF6D00"/>
<path d="M6 10V21.967L10 25.967C10 25.967 21.153 38.848 30 30C38.847 21.152 26.019 11 26.019 11L21.014 6H10C7.791 6 6 7.79 6 10Z" fill="#E64A19"/>
<path d="M26.019 11C37.448 18.698 33.751 27.187 33.751 27.187C33.751 27.187 37.001 30.821 35.687 34C35.687 34 34.347 31.774 32.099 31.774C29.933 31.774 28.659 34 24.299 34C14.591 34 10 25.967 10 25.967C18.747 31.667 24.719 27.63 24.719 27.63C20.778 25.364 12 14 12 14C19.299 20.155 23 22 23 22C21.118 20.458 15 13 15 13C19.224 17.238 28.307 23.378 28.307 23.378C30.691 16.834 26.019 11 26.019 11Z" fill="white"/>
</svg>
