<svg width="60" height="60" viewBox="0 0 60 60" fill="none" xmlns="http://www.w3.org/2000/svg">
<path d="M30 60C46.5685 60 60 46.5685 60 30C60 13.4315 46.5685 0 30 0C13.4315 0 0 13.4315 0 30C0 46.5685 13.4315 60 30 60Z" fill="#F6F7F8"/>
<path fill-rule="evenodd" clip-rule="evenodd" d="M35.5752 11.3355L14.763 12.867C13.0848 13.0122 12.5 14.1062 12.5 15.4178V38.1645C12.5 39.1865 12.8645 40.06 13.7412 41.2275L18.6336 47.5704C19.4372 48.5917 20.1675 48.8103 21.702 48.7371L45.8711 47.2787C47.9153 47.1336 48.5 46.1851 48.5 44.5813V18.9906C48.5 18.1615 48.1717 17.922 47.204 17.216C47.1507 17.1772 47.0956 17.137 47.0384 17.0951L40.3949 12.4292C38.7885 11.2632 38.131 11.1165 35.5752 11.3355ZM22.25 18.5708C20.2768 18.704 19.8284 18.7342 18.7078 17.8246L15.8582 15.5645C15.5675 15.2723 15.7133 14.9077 16.443 14.8354L36.4516 13.3771C38.1307 13.231 39.0067 13.8152 39.6643 14.3253L43.0961 16.8044C43.2422 16.877 43.6067 17.3139 43.1684 17.3139L22.5048 18.5537L22.25 18.5708ZM19.9484 44.3622V22.6366C19.9484 21.689 20.2405 21.2512 21.1163 21.1777L44.8478 19.7929C45.6527 19.72 46.0172 20.2307 46.0172 21.1777V42.7575C46.0172 43.706 45.8708 44.5091 44.5559 44.5813L21.8466 45.8943C20.5323 45.9666 19.9484 45.5298 19.9484 44.3622ZM42.367 23.802C42.5126 24.4588 42.367 25.115 41.7085 25.1889L40.6143 25.4067V41.4459C39.6643 41.9562 38.7882 42.2478 38.0583 42.2478C36.8895 42.2478 36.5968 41.883 35.7213 40.79L28.5641 29.5625V40.4255L30.8289 40.9362C30.8289 40.9362 30.8289 42.2478 29.0017 42.2478L23.9644 42.5398C23.8181 42.2478 23.9644 41.5194 24.4754 41.3734L25.7899 41.0094V26.6465L23.9647 26.5004C23.8184 25.8436 24.1829 24.8966 25.206 24.8231L30.6098 24.4591L38.0583 35.8328V25.7713L36.1592 25.5534C36.0134 24.7505 36.5968 24.1675 37.3271 24.0951L42.367 23.802Z" fill="black"/>
</svg>
